<?xml version="1.0" encoding="UTF-8"?>
<svg version="1.1" xmlns="http://www.w3.org/2000/svg" width="1024" height="1024">
<path d="M0 0 C1.06457428 -0.0061734 2.12914856 -0.0123468 3.22598267 -0.01870728 C23.18273533 -0.09315626 42.95428298 1.58425852 62.4375 6.0625 C63.54561035 6.31483398 64.6537207 6.56716797 65.79541016 6.82714844 C100.23299117 15.01428784 132.62824883 30.19719932 158.75390625 54.31640625 C160.87745436 56.26748345 163.04925681 58.13718282 165.25 60 C169.25721182 63.51130936 172.69810629 67.311618 176.0625 71.4375 C177.18785156 72.80648437 177.18785156 72.80648437 178.3359375 74.203125 C194.69350811 94.74039031 214.46604427 126.06838666 213.0625 153.4375 C214.196875 153.623125 215.33125 153.80875 216.5 154 C234.64866463 158.12469651 251.13937858 168.36446967 265.0625 180.4375 C265.89136719 181.14519531 266.72023438 181.85289062 267.57421875 182.58203125 C293.17434881 204.9674436 309.50099029 237.58479945 313.0625 271.4375 C314.29434726 294.39861066 310.51940642 313.22396789 302.0625 334.4375 C301.0725 334.4375 300.0825 334.4375 299.0625 334.4375 C297.625 332.48828125 297.625 332.48828125 296.0625 329.75 C285.21850091 312.06314194 270.55999667 298.06097106 250.03125 292.80078125 C242.97851327 291.23981033 236.20274155 290.97854404 229 291.0625 C227.73720215 291.07192627 226.4744043 291.08135254 225.17333984 291.09106445 C205.85874974 291.39918458 182.18196633 293.35084272 167.2265625 307.12890625 C161.36875435 313.51534586 158.88516543 320.82410649 159.0625 329.4375 C161.21816836 344.66477438 171.18251796 358.01168012 179.59112549 370.41998291 C196.37980732 395.26604603 211.50695364 420.30080873 216.0625 450.4375 C216.24554687 451.6234375 216.42859375 452.809375 216.6171875 454.03125 C221.86229025 497.77184741 207.24708253 538.40604529 180.625 572.625 C175.41529864 579.18401584 169.86832817 585.4029144 164.0625 591.4375 C163.46276367 592.06446777 162.86302734 592.69143555 162.24511719 593.33740234 C153.96837619 601.94529629 145.55036174 609.97938387 135.92578125 617.06152344 C133.94546277 618.52392844 131.98899786 620.01535481 130.03125 621.5078125 C113.87793918 633.65784734 96.27788283 643.85303169 78.02050781 652.5078125 C75.85894206 653.53415195 73.70702204 654.57944981 71.5546875 655.625 C70.03693406 656.35515638 68.51871537 657.08434654 67 657.8125 C66.30914307 658.14685059 65.61828613 658.48120117 64.90649414 658.82568359 C60.68801094 660.82058575 56.58328343 662.27350115 52.0625 663.4375 C51.8665625 662.19097656 51.670625 660.94445312 51.46875 659.66015625 C48.29875391 641.02330531 41.69431625 626.52535978 29.0625 612.4375 C28.59859863 611.91849121 28.13469727 611.39948242 27.65673828 610.86474609 C5.60043525 586.64350138 -25.10281366 573.75241229 -54.625 561.0625 C-90.20984473 545.75635376 -124.7459318 529.09719377 -154.9375 504.4375 C-155.48390137 503.9926123 -156.03030273 503.54772461 -156.59326172 503.08935547 C-176.78055896 486.54531085 -191.80342831 468.42383374 -205.9375 446.4375 C-206.2675 462.6075 -206.5975 478.7775 -206.9375 495.4375 C-207.5975 495.4375 -208.2575 495.4375 -208.9375 495.4375 C-210.53153652 493.61968528 -211.99054399 491.80584066 -213.4375 489.875 C-214.10507324 488.99098511 -214.10507324 488.99098511 -214.78613281 488.08911133 C-228.75820441 469.38829597 -242.58753038 449.06957947 -248.9375 426.4375 C-249.15164551 425.71884766 -249.36579102 425.00019531 -249.58642578 424.25976562 C-260.52933512 387.46853567 -271.90992556 317.38235112 -253.9375 281.4375 C-260.53124351 286.78913552 -267.06353512 292.20215673 -273.52026367 297.71801758 C-281.41059289 304.4375 -281.41059289 304.4375 -283.9375 304.4375 C-282.65731391 226.21371557 -244.78772372 156.33288424 -189.9375 102.4375 C-191.01064453 102.01791016 -191.01064453 102.01791016 -192.10546875 101.58984375 C-213.82054078 92.85324944 -229.52468442 82.05153438 -239.13916016 60.38378906 C-240.86612733 56.17358039 -241.97370827 51.8714672 -242.9375 47.4375 C-242.10279175 47.46106567 -242.10279175 47.46106567 -241.2512207 47.48510742 C-206.99635811 48.31512505 -176.35577484 38.81989768 -144.27392578 27.90966797 C-115.67961985 18.19216113 -86.70798838 9.73138587 -56.9375 4.4375 C-55.87450684 4.24140137 -54.81151367 4.04530273 -53.71630859 3.84326172 C-35.81676265 0.66279612 -18.14863651 0.0444702 0 0 Z M-4.9375 135.4375 C-4.61521404 148.68052293 1.315527 160.44568062 10.25 170.0625 C23.39831739 182.43738695 40.17052007 186.94236136 57.89453125 186.6484375 C68.71190315 186.24696803 77.69155971 182.65483433 87.0625 177.4375 C82.96490766 174.70577177 78.90460802 172.50040176 74.0625 171.4375 C71.29667711 172.21538769 69.34353044 173.73387326 67.0625 175.4375 C60.38275708 178.54435717 51.79082307 178.64320474 44.8125 176.3125 C37.3730682 172.98718225 31.26381879 168.05968759 28.0625 160.4375 C27.68710291 158.39963008 27.33409192 156.35754753 27 154.3125 C26.17009118 150.69808837 25.69575875 148.95881353 22.80859375 146.58203125 C19.6192118 144.96347415 16.41364753 143.68930432 13.0625 142.4375 C11.54801623 141.80738631 10.03642305 141.17029321 8.52734375 140.52734375 C1.94620517 137.17392788 1.94620517 137.17392788 -4.9375 135.4375 Z " fill="#152C4F" transform="translate(575.9375,224.5625)"/>
<path d="M0 0 C20.09698696 18.92404926 35.18447828 41.27210201 42.15185547 68.2890625 C42.15185547 69.6090625 42.15185547 70.9290625 42.15185547 72.2890625 C40.85892578 72.51980469 39.56599609 72.75054687 38.23388672 72.98828125 C27.46899578 74.98078129 16.81610101 76.96948771 7.15576172 82.4140625 C-6.99509029 88.59299203 -30.51623548 78.64290295 -43.92431641 73.45703125 C-62.60854007 65.99332667 -80.86716172 57.49209355 -99.14892578 49.10522461 C-155.95444364 19.97131528 -155.95444364 19.97131528 -217.36767578 21.77734375 C-222.64683045 24.07030992 -227.80371224 26.50889243 -232.84814453 29.2890625 C-231.67380859 29.38703125 -230.49947266 29.485 -229.28955078 29.5859375 C-215.10888466 30.86457078 -198.58705876 32.42362307 -185.84814453 39.2890625 C-184.70441862 42.72024024 -185.13174041 43.81837496 -185.84814453 47.2890625 C-187.14756143 70.60360039 -182.13318633 91.02151875 -166.57080078 108.90625 C-151.83242898 124.62399497 -129.96540461 133.50839373 -108.54638672 134.38305664 C-106.08354771 134.42293357 -103.62376113 134.42737151 -101.16064453 134.4140625 C-99.85595215 134.41116211 -99.85595215 134.41116211 -98.52490234 134.40820312 C-91.59486484 134.36208827 -84.74505854 133.99385663 -77.84814453 133.2890625 C-80.7267693 136.35340499 -83.6874678 138.99231105 -87.03564453 141.5390625 C-92.23041905 145.52912779 -97.07575376 149.80408462 -101.84814453 154.2890625 C-102.37569336 154.7826123 -102.90324219 155.27616211 -103.44677734 155.78466797 C-113.04533914 164.83703777 -121.12756166 174.60669299 -128.84814453 185.2890625 C-129.27466309 185.87042969 -129.70118164 186.45179688 -130.140625 187.05078125 C-141.75409117 202.91859223 -153.96547694 222.54278952 -156.84814453 242.2890625 C-155.50236328 241.45375 -155.50236328 241.45375 -154.12939453 240.6015625 C-137.06279379 230.11541356 -119.95909426 221.09037982 -99.84814453 218.2890625 C-101.16709386 221.68323945 -102.63778582 224.94981789 -104.22314453 228.2265625 C-108.75236112 238.18279897 -111.44755958 248.35643167 -111.84814453 259.2890625 C-111.89970703 260.06121094 -111.95126953 260.83335937 -112.00439453 261.62890625 C-113.20024228 291.57492701 -95.92176064 322.42520124 -76.84814453 344.2890625 C-75.51996494 345.62752973 -74.18726568 346.96154222 -72.84814453 348.2890625 C-73.06748657 346.91355225 -73.06748657 346.91355225 -73.29125977 345.51025391 C-73.83960693 342.06269239 -74.38536154 338.61474013 -74.92944336 335.16650391 C-75.16410498 333.68261901 -75.3997576 332.19889043 -75.63647461 330.71533203 C-77.7836862 317.25099891 -78.99666263 304.31334933 -78.91064453 290.6640625 C-78.9056165 289.26432453 -78.90105591 287.8645848 -78.89697266 286.46484375 C-78.8852762 283.07287081 -78.86888539 279.68099017 -78.84814453 276.2890625 C-78.09581543 277.0421167 -77.34348633 277.7951709 -76.56835938 278.57104492 C-74.49240464 280.64532279 -72.41168044 282.71418873 -70.32470703 284.77734375 C-67.68405563 287.39585632 -65.04829737 290.01906663 -62.42236328 292.65234375 C-61.82254639 293.25344971 -61.22272949 293.85455566 -60.60473633 294.47387695 C-58.2231585 296.93489588 -55.9620517 299.48463965 -53.75830078 302.10546875 C-52.13989577 303.95554728 -50.48376346 305.73178872 -48.78173828 307.50390625 C-21.81397259 335.64007346 -2.74019808 368.26298107 6.15185547 406.2890625 C6.34166992 407.04501709 6.53148437 407.80097168 6.72705078 408.57983398 C8.41708926 415.91108884 8.44903347 423.10419135 8.40185547 430.6015625 C8.40958984 431.85001953 8.41732422 433.09847656 8.42529297 434.38476562 C8.42142578 436.1878418 8.42142578 436.1878418 8.41748047 438.02734375 C8.41522461 439.11055908 8.41296875 440.19377441 8.41064453 441.30981445 C8.14730339 444.34146725 7.43158155 446.54502223 6.15185547 449.2890625 C6.81185547 449.2890625 7.47185547 449.2890625 8.15185547 449.2890625 C8.40322266 448.60585938 8.65458984 447.92265625 8.91357422 447.21875 C10.08147466 444.45557861 11.44565391 441.8899178 12.91870117 439.27954102 C17.44827257 431.19865027 20.68677886 423.25297744 23.15185547 414.2890625 C23.63138672 412.6184375 23.63138672 412.6184375 24.12060547 410.9140625 C30.43950142 384.23427959 26.10068269 353.61578722 20.15185547 327.2890625 C23.96239871 330.66757136 26.17645755 334.44394028 28.58935547 338.8515625 C28.98477539 339.56755615 29.38019531 340.2835498 29.78759766 341.02124023 C40.18596261 360.04290004 45.58257792 378.26598962 45.46435547 399.9765625 C45.46220032 400.68693665 45.46004517 401.39731079 45.45782471 402.12921143 C45.40743522 412.46662844 45.04683988 422.27724141 42.15185547 432.2890625 C41.95849609 432.98531738 41.76513672 433.68157227 41.56591797 434.39892578 C36.98022695 450.61514641 29.56386363 465.03153658 19.15185547 478.2890625 C18.32621094 479.40087891 18.32621094 479.40087891 17.48388672 480.53515625 C2.73829098 500.18427551 -17.44395951 520.59608567 -39.84814453 531.2890625 C-39.57099609 530.13148438 -39.29384766 528.97390625 -39.00830078 527.78125 C-38.64231016 526.24221251 -38.27643062 524.70314861 -37.91064453 523.1640625 C-37.72824219 522.40351562 -37.54583984 521.64296875 -37.35791016 520.859375 C-37.09204102 519.73789063 -37.09204102 519.73789063 -36.82080078 518.59375 C-36.65845947 517.91296387 -36.49611816 517.23217773 -36.32885742 516.53076172 C-32.76583657 499.91539482 -33.38726542 481.40987685 -38.84814453 465.2890625 C-39.16960449 464.33797607 -39.16960449 464.33797607 -39.49755859 463.36767578 C-50.47091207 431.98899616 -72.94747128 405.57441363 -98.84814453 385.2890625 C-99.97753083 384.37198202 -101.10503177 383.45257639 -102.23095703 382.53125 C-110.3916188 375.87815385 -118.79691819 369.64465859 -127.35595703 363.515625 C-153.46955481 344.80519281 -179.31730461 323.86212197 -198.60107422 297.94628906 C-199.82703666 296.31711266 -201.08386738 294.71833442 -202.35595703 293.125 C-214.19342102 278.23786073 -223.58467502 261.85693752 -232.84814453 245.2890625 C-233.08545851 263.71923119 -233.06625523 281.9591463 -230.84814453 300.2890625 C-230.73519043 301.23700684 -230.62223633 302.18495117 -230.50585938 303.16162109 C-226.08422774 338.18544222 -212.60227369 370.28706192 -195.99633789 401.14794922 C-195.26143017 402.51838101 -194.5435829 403.89818575 -193.84814453 405.2890625 C-211.01313827 397.40876992 -226.63907894 378.08228959 -237.84814453 363.2890625 C-238.61513672 362.350625 -239.38212891 361.4121875 -240.17236328 360.4453125 C-266.15909005 328.13528487 -282.96575908 285.29263335 -283.01611328 243.6640625 C-283.02110588 242.18450073 -283.02110588 242.18450073 -283.02619934 240.67504883 C-283.0312313 238.59766094 -283.03360883 236.52026507 -283.03344727 234.44287109 C-283.03561946 231.32505337 -283.05377627 228.20759846 -283.07275391 225.08984375 C-283.12353662 207.95613074 -281.8462828 191.83416699 -277.72314453 175.1640625 C-277.30742187 173.42576172 -277.30742187 173.42576172 -276.88330078 171.65234375 C-276.21456238 168.86209042 -275.53627143 166.07458466 -274.84814453 163.2890625 C-281.09085924 171.04418748 -287.29803795 178.81884842 -293.34228516 186.72998047 C-295.76009667 189.89001743 -298.21880325 193.00978314 -300.72314453 196.1015625 C-309.99224622 207.67389551 -318.58373217 219.34900627 -325.84814453 232.2890625 C-326.18797363 232.88509277 -326.52780273 233.48112305 -326.87792969 234.09521484 C-332.76019192 244.46161195 -337.43058075 255.23018551 -341.84814453 266.2890625 C-342.1887793 267.13275391 -342.52941406 267.97644531 -342.88037109 268.84570312 C-351.05408591 289.19156333 -357.92238336 310.33538519 -359.84814453 332.2890625 C-360.50814453 332.2890625 -361.16814453 332.2890625 -361.84814453 332.2890625 C-366.24294496 313.21562863 -367.21173495 294.05889263 -367.09814453 274.5390625 C-367.09504272 273.58172211 -367.09194092 272.62438171 -367.08874512 271.63803101 C-366.89366548 220.10967462 -359.26832476 154.84791728 -326.84814453 112.2890625 C-341.92240418 120.19647921 -355.11160831 130.33641735 -367.43017578 142.046875 C-369.49165884 143.95849257 -371.56234673 145.6586333 -373.84814453 147.2890625 C-371.85390912 138.64737574 -367.98914871 131.12318035 -363.90673828 123.32519531 C-362.91847641 121.42434106 -361.9579394 119.51219147 -361.00439453 117.59375 C-350.61197501 97.00352555 -336.17187349 78.60872304 -320.37304688 61.91552734 C-318.82142418 60.2605625 -317.29484236 58.58554295 -315.77392578 56.90234375 C-310.51181138 51.08941604 -305.18309124 45.55415892 -299.26220703 40.39453125 C-297.64894041 38.98749127 -296.06004791 37.55202197 -294.49658203 36.08984375 C-288.32873719 30.33385825 -281.74501621 25.45046681 -274.82470703 20.65917969 C-272.34775639 18.94220254 -269.87927741 17.21328725 -267.41064453 15.484375 C-266.54568359 14.87867676 -265.68072266 14.27297852 -264.78955078 13.64892578 C-264.14888672 13.2001709 -263.50822266 12.75141602 -262.84814453 12.2890625 C-263.65743408 12.25466064 -264.46672363 12.22025879 -265.30053711 12.18481445 C-287.12157461 11.18654726 -306.50504462 9.23858235 -325.84814453 -1.7109375 C-325.84814453 -2.3709375 -325.84814453 -3.0309375 -325.84814453 -3.7109375 C-324.68694092 -4.0826709 -323.5257373 -4.4544043 -322.3293457 -4.83740234 C-316.89569307 -6.5794358 -311.46497931 -8.3304958 -306.03564453 -10.0859375 C-305.05308685 -10.40362091 -304.07052917 -10.72130432 -303.05819702 -11.0486145 C-291.32975049 -14.84944998 -279.68097746 -18.75135055 -268.16064453 -23.1484375 C-256.22519216 -27.68460194 -244.17337691 -31.39046929 -231.84814453 -34.7109375 C-230.89439941 -34.97358398 -229.9406543 -35.23623047 -228.95800781 -35.50683594 C-153.89068391 -56.04783544 -60.54110546 -56.0465082 0 0 Z " fill="#436E98" transform="translate(714.84814453125,298.7109375)"/>
<path d="M0 0 C1.23778702 -0.0071553 2.47557404 -0.01431061 3.75086975 -0.02168274 C5.11994909 -0.02452281 6.4890287 -0.02723456 7.85810852 -0.02983093 C9.30220706 -0.03609858 10.74630399 -0.04274565 12.19039917 -0.04974365 C16.93029158 -0.07075235 21.6701842 -0.08114373 26.41011047 -0.09111023 C28.04437082 -0.09515912 29.678631 -0.09927608 31.31289101 -0.10346031 C38.99249386 -0.12250576 46.67208715 -0.13673759 54.35170907 -0.14507228 C63.20428119 -0.15483965 72.05660295 -0.18114869 80.90908688 -0.22157317 C87.75935978 -0.25177663 94.60956108 -0.2665452 101.45989925 -0.26985329 C105.54757451 -0.27219914 109.6349821 -0.28109851 113.72258568 -0.30631447 C117.57141454 -0.32967427 121.41980098 -0.33379701 125.26868248 -0.32355309 C126.67590816 -0.32305951 128.08315621 -0.32932709 129.49031448 -0.34310913 C139.82534384 -0.43861303 148.28920169 0.69350415 155.96089172 8.14717102 C158.06636047 11.00263977 158.06636047 11.00263977 160.14839172 14.33467102 C160.71433044 15.23367126 160.71433044 15.23367126 161.29170227 16.15083313 C164.826688 21.81332307 168.19642898 27.57836789 171.51045227 33.37251282 C175.68822035 40.6117466 179.58166629 46.19862948 187.93128586 48.74903011 C191.5333358 49.45563205 195.20287611 49.2762416 198.86030579 49.26069641 C199.75821838 49.26084244 200.65613098 49.26098846 201.58125305 49.26113892 C204.5463656 49.26044278 207.51141516 49.25266431 210.47651672 49.24482727 C212.53346218 49.24296203 214.59040807 49.24153863 216.64735413 49.24053955 C222.05933358 49.23672272 227.47128616 49.22689953 232.883255 49.21583557 C238.40652605 49.20560354 243.92980143 49.20103809 249.45307922 49.19599915 C260.28902852 49.18527654 271.12495789 49.16821009 281.96089172 49.14717102 C282.29089172 49.80717102 282.62089172 50.46717102 282.96089172 51.14717102 C187.8392165 85.10661261 187.8392165 85.10661261 148.96089172 72.14717102 C145.10928224 89.72790463 149.9702218 110.46892636 159.08589172 125.64717102 C162.87178354 131.33860041 167.30744814 136.45639993 171.80073547 141.59248352 C173.96089172 144.14717102 173.96089172 144.14717102 173.96089172 145.14717102 C173.19889339 145.14771579 172.43689507 145.14826056 171.65180588 145.14882183 C153.07105101 145.1638193 134.490544 145.20638574 115.90992355 145.27926159 C106.92428143 145.31384665 97.93879169 145.33925858 88.95307922 145.34272766 C81.11689288 145.34577661 73.28097837 145.36639156 65.44489694 145.40769559 C61.29950129 145.42894329 57.15449129 145.44166891 53.00904083 145.43332481 C49.09852062 145.42573203 45.1887784 145.44181661 41.27840042 145.47523117 C39.85151333 145.48340209 38.42454794 145.48328887 36.99766922 145.47376823 C25.08086788 145.40219616 14.49938746 147.66324059 5.64448547 156.13154602 C-0.90029934 163.96706565 -3.29418443 173.65477619 -3.27961731 183.67695618 C-3.28132616 184.39024613 -3.28303501 185.10353609 -3.28479564 185.8384409 C-3.28806343 188.2044773 -3.27713214 190.57022369 -3.26615906 192.93623352 C-3.26559436 194.64182529 -3.26591266 196.34741755 -3.26704407 198.05300903 C-3.26761628 202.66606751 -3.2558833 207.2790213 -3.24189615 211.89205551 C-3.22936683 216.71935745 -3.22821656 221.54666197 -3.22584534 226.37397766 C-3.21963704 235.50751227 -3.20323501 244.64099882 -3.18314636 253.77451229 C-3.16076712 264.17594419 -3.14978884 274.57737843 -3.13975549 284.97882843 C-3.11886821 306.36830275 -3.08370488 327.75773385 -3.03910828 349.14717102 C-2.92493057 347.8617189 -2.81075287 346.57626678 -2.69311523 345.25186157 C-1.59246383 332.8625259 -0.49024229 320.47333067 0.61334515 308.08425617 C1.18004061 301.7219105 1.74626678 295.35952396 2.31123352 288.99702454 C3.73572063 272.9580588 5.17053196 256.9200592 6.62262726 240.88356781 C6.85030787 238.36865653 7.07768361 235.85371763 7.30477142 233.33875275 C7.97751423 225.89198302 8.65676174 218.44585893 9.34554482 211.00055504 C9.55807908 208.69448429 9.76867395 206.38823385 9.97719383 204.08179665 C10.26544637 200.89886451 10.56107569 197.71669953 10.8585968 194.53462219 C10.94076509 193.61021772 11.02293339 192.68581326 11.10759163 191.73339653 C12.6418604 175.62955934 12.6418604 175.62955934 17.46089172 170.64717102 C18.37354797 169.67263977 18.37354797 169.67263977 19.30464172 168.67842102 C22.54931711 165.67862679 25.17402716 165.99688088 29.49336243 165.94184875 C30.17127523 165.93195199 30.84918804 165.92205523 31.54764366 165.91185856 C33.82728392 165.8799617 36.10694201 165.85526403 38.38667297 165.83076477 C40.01337072 165.81004095 41.64006441 165.78899681 43.26675415 165.76765442 C47.68249149 165.71138914 52.0982817 165.6621552 56.51412201 165.61474228 C59.26460596 165.58476677 62.01506199 165.55290829 64.76551819 165.52049255 C103.83058323 165.06335517 142.89377808 165.03631487 181.96089172 165.14717102 C181.37041298 165.93361496 181.37041298 165.93361496 180.76800537 166.73594666 C174.97193025 174.45912871 169.23239442 182.22284675 163.52583313 190.0124054 C162.30347373 191.67984855 161.07644623 193.34386991 159.84761047 195.00654602 C133.94605019 230.86073448 117.74763122 276.71386512 110.96089172 320.14717102 C110.83988098 320.84761536 110.71887024 321.54805969 110.5941925 322.26972961 C107.90187567 338.087563 109.20526183 354.20213482 109.96089172 370.14717102 C110.01180969 371.23658997 110.06272766 372.32600891 110.1151886 373.44844055 C110.36533092 378.68343956 110.64404282 383.91579345 110.96089172 389.14717102 C111.47136047 388.66248352 111.98182922 388.17779602 112.50776672 387.67842102 C128.26858403 373.14717102 128.26858403 373.14717102 132.96089172 373.14717102 C132.94518127 374.36896057 132.92947083 375.59075012 132.9132843 376.8495636 C132.60504497 403.13943731 132.92357313 428.48919849 137.58052063 454.43598938 C137.94748263 457.05159463 137.98778208 459.51103604 137.96089172 462.14717102 C119.65349006 462.13333402 101.34638393 462.09095799 83.03913498 462.01508045 C74.5377646 461.98050249 66.03655517 461.95508441 57.53511047 461.95161438 C50.12081876 461.94856443 42.7068142 461.92793626 35.2926333 461.88664645 C31.37079688 461.86540763 27.44936775 461.85266842 23.52747345 461.86101723 C19.8270548 461.86861584 16.12745741 461.85250277 12.42718887 461.81911087 C10.43997004 461.80708862 8.45264925 461.81939037 6.46543884 461.83273315 C-4.99407544 461.68810656 -14.66058947 458.55393898 -23.06254578 450.53388977 C-29.25797954 443.05284228 -32.15933891 434.92567358 -32.17332935 425.36067104 C-32.17568158 424.67555989 -32.17803381 423.99044873 -32.18045732 423.28457662 C-32.18713939 420.97797094 -32.18668934 418.67142168 -32.1862793 416.36480713 C-32.18957842 414.69864951 -32.19330409 413.03249268 -32.19742078 411.36633688 C-32.20744346 406.77897243 -32.21115801 402.19162106 -32.21381009 397.60424721 C-32.21771236 392.65995167 -32.22729077 387.71566649 -32.23602295 382.77137756 C-32.25578985 370.82628214 -32.26585399 358.88118586 -32.27475074 346.93607816 C-32.27913339 341.31147589 -32.28450027 335.68687455 -32.28973961 330.06227303 C-32.30675234 311.36560098 -32.32124654 292.66892953 -32.32848835 273.97225094 C-32.33039826 269.11983171 -32.33231859 264.26741249 -32.33427429 259.41499329 C-32.3349999 257.60591594 -32.3349999 257.60591594 -32.33574017 255.76029158 C-32.34404054 236.22287157 -32.36937739 216.68551278 -32.40185497 197.1481195 C-32.4349242 177.09134842 -32.452937 157.03460845 -32.45613259 136.97780997 C-32.45829784 125.71593115 -32.46704874 114.45414161 -32.49259377 103.19228935 C-32.51429889 93.60111915 -32.52235208 84.01005991 -32.51262698 74.41886794 C-32.50808173 69.52637188 -32.50998172 64.63410476 -32.52938843 59.74164009 C-32.54701668 55.25875237 -32.54602508 50.77626068 -32.53049114 46.29336876 C-32.52811456 44.67553269 -32.53244124 43.05766921 -32.54431979 41.439875 C-32.63509108 28.25587162 -30.94099859 18.1306306 -21.48442078 8.31513977 C-14.94350745 2.51608722 -8.66353555 0.03440758 0 0 Z " fill="#152D50" transform="translate(165.0391082763672,176.8528289794922)"/>
<path d="M0 0 C20.09698696 18.92404926 35.18447828 41.27210201 42.15185547 68.2890625 C42.15185547 69.6090625 42.15185547 70.9290625 42.15185547 72.2890625 C40.85892578 72.51980469 39.56599609 72.75054687 38.23388672 72.98828125 C27.46899578 74.98078129 16.81610101 76.96948771 7.15576172 82.4140625 C-6.99509029 88.59299203 -30.51623548 78.64290295 -43.92431641 73.45703125 C-62.60854007 65.99332667 -80.86716172 57.49209355 -99.14892578 49.10522461 C-153.56933692 21.33550425 -153.56933692 21.33550425 -212.84814453 19.9765625 C-231.12743868 26.78574343 -248.04357204 36.63223753 -262.84814453 49.2890625 C-263.81880859 50.1140625 -264.78947266 50.9390625 -265.78955078 51.7890625 C-268.19650942 53.9057162 -270.53273501 56.07306233 -272.84814453 58.2890625 C-273.94449219 59.30806641 -273.94449219 59.30806641 -275.06298828 60.34765625 C-303.38809884 87.47803455 -321.21659329 127.52621271 -332.84814453 164.2890625 C-333.11240234 165.11374023 -333.37666016 165.93841797 -333.64892578 166.78808594 C-341.14846572 190.28835663 -346.63427322 213.82228625 -349.84814453 238.2890625 C-350.02112061 239.53800293 -350.19409668 240.78694336 -350.37231445 242.07373047 C-351.80591498 252.87063383 -352.23896002 263.61434058 -352.56814575 274.49353027 C-353.0757299 290.5198593 -353.99482155 305.60603452 -358.32910156 321.11523438 C-359.21058235 324.80700527 -359.51336015 328.5123938 -359.84814453 332.2890625 C-360.50814453 332.2890625 -361.16814453 332.2890625 -361.84814453 332.2890625 C-366.24294496 313.21562863 -367.21173495 294.05889263 -367.09814453 274.5390625 C-367.09504272 273.58172211 -367.09194092 272.62438171 -367.08874512 271.63803101 C-366.89366548 220.10967462 -359.26832476 154.84791728 -326.84814453 112.2890625 C-341.92240418 120.19647921 -355.11160831 130.33641735 -367.43017578 142.046875 C-369.49165884 143.95849257 -371.56234673 145.6586333 -373.84814453 147.2890625 C-371.85390912 138.64737574 -367.98914871 131.12318035 -363.90673828 123.32519531 C-362.91847641 121.42434106 -361.9579394 119.51219147 -361.00439453 117.59375 C-350.61197501 97.00352555 -336.17187349 78.60872304 -320.37304688 61.91552734 C-318.82142418 60.2605625 -317.29484236 58.58554295 -315.77392578 56.90234375 C-310.51181138 51.08941604 -305.18309124 45.55415892 -299.26220703 40.39453125 C-297.64894041 38.98749127 -296.06004791 37.55202197 -294.49658203 36.08984375 C-288.32873719 30.33385825 -281.74501621 25.45046681 -274.82470703 20.65917969 C-272.34775639 18.94220254 -269.87927741 17.21328725 -267.41064453 15.484375 C-266.54568359 14.87867676 -265.68072266 14.27297852 -264.78955078 13.64892578 C-264.14888672 13.2001709 -263.50822266 12.75141602 -262.84814453 12.2890625 C-263.65743408 12.25466064 -264.46672363 12.22025879 -265.30053711 12.18481445 C-287.12157461 11.18654726 -306.50504462 9.23858235 -325.84814453 -1.7109375 C-325.84814453 -2.3709375 -325.84814453 -3.0309375 -325.84814453 -3.7109375 C-324.68694092 -4.0826709 -323.5257373 -4.4544043 -322.3293457 -4.83740234 C-316.89569307 -6.5794358 -311.46497931 -8.3304958 -306.03564453 -10.0859375 C-305.05308685 -10.40362091 -304.07052917 -10.72130432 -303.05819702 -11.0486145 C-291.32975049 -14.84944998 -279.68097746 -18.75135055 -268.16064453 -23.1484375 C-256.22519216 -27.68460194 -244.17337691 -31.39046929 -231.84814453 -34.7109375 C-230.89439941 -34.97358398 -229.9406543 -35.23623047 -228.95800781 -35.50683594 C-153.89068391 -56.04783544 -60.54110546 -56.0465082 0 0 Z " fill="#6C99C0" transform="translate(714.84814453125,298.7109375)"/>
<path d="M0 0 C0.33 0 0.66 0 1 0 C1.21914063 1.05316406 1.43828125 2.10632813 1.6640625 3.19140625 C6.87299417 27.29785747 18.4361537 48.26648434 33 68 C33.43779785 68.59474121 33.8755957 69.18948242 34.32666016 69.80224609 C65.35356891 111.52016082 113.88990683 144.07275343 164 158 C163.55011719 157.5359375 163.10023438 157.071875 162.63671875 156.59375 C145.85518308 138.56789205 134.15535247 116.13872371 126.5625 92.875 C126.29091064 92.05668701 126.01932129 91.23837402 125.73950195 90.39526367 C125.49675537 89.62287354 125.25400879 88.8504834 125.00390625 88.0546875 C124.78549072 87.36874512 124.5670752 86.68280273 124.34204102 85.97607422 C123.94712395 83.69451908 124.29581218 82.18557903 125 80 C125.96486328 80.92619141 125.96486328 80.92619141 126.94921875 81.87109375 C133.31775751 87.83989542 139.90008363 92.89936539 147.17089844 97.76220703 C150.56691136 100.06036314 153.90508818 102.44086831 157.25 104.8125 C161.62130864 107.91151788 165.99593257 111.00352096 170.40625 114.046875 C179.37500344 120.25809537 187.80899707 126.79697218 196 134 C196.72316406 134.61230469 197.44632813 135.22460938 198.19140625 135.85546875 C220.06774758 154.46140754 239.17641394 179.76081246 243 209 C243.9108447 223.43912824 241.48317909 235.56621124 236 249 C232.91542003 245.96544025 229.94763541 242.87379082 227.05761719 239.65039062 C222.31911354 234.37487908 217.50944198 229.48163011 212 225 C211.49549316 224.57783203 210.99098633 224.15566406 210.47119141 223.72070312 C200.81572464 215.64169564 190.77079368 208.51602592 180 202 C179.31663574 201.58540527 178.63327148 201.17081055 177.92919922 200.74365234 C159.69261101 189.82765898 139.87377897 181.96665034 120.25 173.9375 C92.96873 162.72594488 66.75692176 149.75122742 43.58837891 131.26660156 C42.14795348 130.11798073 40.69012592 128.99126764 39.23046875 127.8671875 C15.92680542 109.73803839 -10.41787229 82.52728789 -15 52 C-16.54571831 33.69785022 -14.06289299 17.00229248 -2.1875 2.3125 C-1.1046875 1.1678125 -1.1046875 1.1678125 0 0 Z " fill="#2E4F75" transform="translate(404,579)"/>
<path d="M0 0 C0.78890625 0.41636719 1.5778125 0.83273437 2.390625 1.26171875 C31.39385171 17.58772863 54.3860209 46.75619625 63.76342773 78.62109375 C66.35915596 88.09452073 66.40676457 97.23765041 66 107 C65.030625 106.175 64.06125 105.35 63.0625 104.5 C62.4128125 103.94828125 61.763125 103.3965625 61.09375 102.828125 C59.73302804 101.64003195 58.39751421 100.42220625 57.09375 99.171875 C36.484208 79.67207757 6.61839021 68.54652977 -21 64 C-21.89332031 63.85191895 -22.78664063 63.70383789 -23.70703125 63.55126953 C-68.64413793 56.48994137 -113.27479491 62.99533429 -157 74 C-158.82144531 74.45052734 -158.82144531 74.45052734 -160.6796875 74.91015625 C-163.45512478 75.59920823 -166.22854912 76.29512232 -169 77 C-165.14254633 72.26850357 -161.11576759 68.10454444 -156.4375 64.1875 C-155.82817627 63.67179443 -155.21885254 63.15608887 -154.59106445 62.62475586 C-149.12076877 58.03021681 -143.49300075 53.66020169 -137.78955078 49.35986328 C-135.82597152 47.86775735 -133.879143 46.35537696 -131.93359375 44.83984375 C-123.44514096 38.24623017 -114.8214209 32.03268259 -105.80761719 26.1796875 C-103.45296447 24.64299356 -101.11883221 23.076729 -98.78442383 21.50952148 C-91.62023428 16.70366277 -84.40693544 11.97230986 -77.1875 7.25 C-76.23294922 6.62391846 -75.27839844 5.99783691 -74.29492188 5.3527832 C-48.82237899 -11.27463571 -27.81985582 -15.04635993 0 0 Z " fill="#365B83" transform="translate(798,405)"/>
<path d="M0 0 C0.78890625 0.42667969 1.5778125 0.85335938 2.390625 1.29296875 C3.17953125 1.70933594 3.9684375 2.12570312 4.78125 2.5546875 C33.78447671 18.88069738 56.7766459 48.049165 66.15405273 79.9140625 C68.74978096 89.38748948 68.79738957 98.53061916 68.390625 108.29296875 C67.32575645 107.39995219 66.26387459 106.50337405 65.203125 105.60546875 C64.61144531 105.10660156 64.01976562 104.60773438 63.41015625 104.09375 C62.74371094 103.49949219 62.07726562 102.90523438 61.390625 102.29296875 C60.07771484 101.14828125 60.07771484 101.14828125 58.73828125 99.98046875 C56.00197182 96.84805462 55.59961086 95.05400944 55.015625 90.98046875 C50.93200388 69.70149167 37.33105241 51.39153764 23.390625 35.29296875 C22.75511719 34.46410156 22.11960937 33.63523437 21.46484375 32.78125 C17.71030883 28.27722223 12.99076408 24.89387232 8.390625 21.29296875 C7.22466797 20.35130859 7.22466797 20.35130859 6.03515625 19.390625 C-9.71172427 7.24009566 -27.81162159 -2.69367457 -47.609375 -5.70703125 C-34.49870724 -14.44747643 -13.05480323 -6.50737891 0 0 Z " fill="#709DC3" transform="translate(795.609375,403.70703125)"/>
<path d="M0 0 C1.03030334 -0.00151062 1.03030334 -0.00151062 2.0814209 -0.00305176 C16.09392645 0.010839 30.06530903 0.88381556 42.875 7.25 C43.37 8.24 43.37 8.24 43.875 9.25 C42.98083374 9.33133179 42.98083374 9.33133179 42.06860352 9.41430664 C22.27369387 11.31182916 3.63895309 15.69159265 -14.9375 22.8125 C-15.66888184 23.0904541 -16.40026367 23.3684082 -17.15380859 23.65478516 C-20.51877101 24.99284891 -23.25570895 26.340015 -26.26171875 28.41015625 C-29.40411623 30.56653542 -31.32802784 31.77421233 -35.125 32.25 C-41.83769462 30.05118084 -47.50189391 25.38460065 -53.125 21.25 C-54.53140787 20.27452135 -55.94141168 19.30420069 -57.35546875 18.33984375 C-66.85147449 11.79705101 -66.85147449 11.79705101 -68.125 9.25 C-62.18526334 8.12352462 -56.24449359 7.00272094 -50.30273438 5.88696289 C-48.28519427 5.50730263 -46.26793542 5.12614437 -44.25097656 4.7434082 C-41.33733161 4.19079552 -38.4226886 3.64373308 -35.5078125 3.09765625 C-34.61885284 2.9278273 -33.72989319 2.75799835 -32.81399536 2.58302307 C-21.87242965 0.5465562 -11.12014856 0.01134232 0 0 Z " fill="#2E4F75" transform="translate(735.125,486.75)"/>
<path d="M0 0 C-3.8712086 1.46058127 -7.74887088 2.90233261 -11.63330078 4.32739258 C-12.95223727 4.81419299 -14.26933978 5.30599397 -15.58447266 5.80297852 C-17.48133188 6.518788 -19.38418106 7.21602257 -21.2890625 7.91015625 C-22.43068848 8.33433838 -23.57231445 8.75852051 -24.74853516 9.19555664 C-28.25690524 10.0635608 -30.51878584 9.8507073 -34 9 C-34 8.34 -34 7.68 -34 7 C-29.545 6.505 -29.545 6.505 -25 6 C-25 5.01 -25 4.02 -25 3 C-25.66 3 -26.32 3 -27 3 C-27 2.34 -27 1.68 -27 1 C-27.83978394 1.05329468 -27.83978394 1.05329468 -28.6965332 1.10766602 C-31.23485442 1.26534043 -33.77362523 1.41401707 -36.3125 1.5625 C-37.63411133 1.64661133 -37.63411133 1.64661133 -38.98242188 1.73242188 C-40.25375977 1.80493164 -40.25375977 1.80493164 -41.55078125 1.87890625 C-42.72120972 1.94960327 -42.72120972 1.94960327 -43.9152832 2.02172852 C-46 2 -46 2 -49 1 C-50.48770605 0.88624128 -51.97967324 0.82392798 -53.47143555 0.79467773 C-54.37214279 0.77473251 -55.27285004 0.75478729 -56.20085144 0.73423767 C-57.16968765 0.71752518 -58.13852386 0.70081268 -59.13671875 0.68359375 C-60.13129593 0.66281265 -61.12587311 0.64203156 -62.15058899 0.62062073 C-65.32948867 0.55520588 -68.50847134 0.4962776 -71.6875 0.4375 C-73.84180548 0.39430712 -75.99610254 0.35069258 -78.15039062 0.30664062 C-83.43350588 0.19953274 -88.71670379 0.09775127 -94 0 C-94 -0.33 -94 -0.66 -94 -1 C-82.03937681 -1.17677555 -70.07865777 -1.34274403 -58.11769295 -1.49477577 C-52.56421084 -1.56570684 -47.01083214 -1.64041156 -41.45751953 -1.72363281 C-36.10193553 -1.80375388 -30.74630545 -1.87410302 -25.39049911 -1.93757248 C-23.343446 -1.96356915 -21.2964351 -1.99313407 -19.24948502 -2.02626419 C-16.39047268 -2.07193818 -13.53157553 -2.10511591 -10.67236328 -2.13525391 C-9.81928589 -2.1517952 -8.9662085 -2.16833649 -8.08728027 -2.18537903 C-2.22810432 -2.22810432 -2.22810432 -2.22810432 0 0 Z " fill="#101C31" transform="translate(448,228)"/>
<path d="M0 0 C-0.33 10.56 -0.66 21.12 -1 32 C-1.33 32 -1.66 32 -2 32 C-2.33 35.63 -2.66 39.26 -3 43 C-3.33 43 -3.66 43 -4 43 C-4 34.09 -4 25.18 -4 16 C-5.98 16.33 -7.96 16.66 -10 17 C-10 16.34 -10 15.68 -10 15 C-11.98 15 -13.96 15 -16 15 C-16.33 13.68 -16.66 12.36 -17 11 C-14.35675132 9.16291774 -11.70998489 7.33097086 -9.0625 5.5 C-8.30775391 4.97535156 -7.55300781 4.45070313 -6.77539062 3.91015625 C-5.69741211 3.16572266 -5.69741211 3.16572266 -4.59765625 2.40625 C-3.93258057 1.94541016 -3.26750488 1.48457031 -2.58227539 1.00976562 C-1 0 -1 0 0 0 Z " fill="#233755" transform="translate(298,550)"/>
<path d="M0 0 C0.66 0.99 1.32 1.98 2 3 C2.66 3 3.32 3 4 3 C4 3.66 4 4.32 4 5 C4.66 5.33 5.32 5.66 6 6 C6.33 6.33 6.66 6.66 7 7 C7.99 6.34 8.98 5.68 10 5 C10.66 5.33 11.32 5.66 12 6 C10.99839844 6.85722656 9.99679687 7.71445312 8.96484375 8.59765625 C7.62226978 9.75245764 6.279829 10.90741388 4.9375 12.0625 C4.28072266 12.62388672 3.62394531 13.18527344 2.94726562 13.76367188 C-1.56972622 17.65763036 -5.84196472 21.72522518 -10 26 C-11 24 -11 24 -10.3190918 21.89282227 C-9.94953369 21.04260498 -9.57997559 20.1923877 -9.19921875 19.31640625 C-8.79896484 18.38892578 -8.39871094 17.46144531 -7.98632812 16.50585938 C-7.55771484 15.53455078 -7.12910156 14.56324219 -6.6875 13.5625 C-6.06198242 12.11133789 -6.06198242 12.11133789 -5.42382812 10.63085938 C-3.79238491 6.88140216 -2.27340393 3.41010589 0 0 Z " fill="#6F9BC1" transform="translate(352,420)"/>
<path d="M0 0 C0.33 0 0.66 0 1 0 C1.33 3.63 1.66 7.26 2 11 C1.01 10.505 1.01 10.505 0 10 C-1.77505708 9.89695235 -3.55396402 9.85779301 -5.33198547 9.84851074 C-7.02913696 9.83599525 -7.02913696 9.83599525 -8.76057434 9.82322693 C-10.00787827 9.81904251 -11.25518219 9.81485809 -12.5402832 9.81054688 C-14.54962712 9.7978164 -16.55897104 9.78508569 -18.56831491 9.7723465 C-20.7322325 9.75958695 -22.89614973 9.74927206 -25.06008339 9.73963928 C-29.56891703 9.71943491 -34.07768585 9.69177852 -38.58647156 9.66296387 C-48.16178397 9.60283032 -57.73713546 9.55103807 -67.3125 9.5 C-77.63884384 9.44491575 -87.96516796 9.38836154 -98.29144925 9.32245111 C-102.77255632 9.29413057 -107.25365601 9.27052343 -111.73480761 9.25052643 C-113.85287289 9.24034806 -115.97091143 9.22796175 -118.08895874 9.21458435 C-120.67023186 9.19829575 -123.25153012 9.18547514 -125.83283997 9.17677307 C-126.97273376 9.16842941 -128.11262756 9.16008575 -129.2870636 9.15148926 C-130.76955833 9.14375866 -130.76955833 9.14375866 -132.28200245 9.13587189 C-134.94909431 9.00254476 -137.40036564 8.59507161 -140 8 C-140 7.67 -140 7.34 -140 7 C-71.195 7.495 -71.195 7.495 -1 8 C-0.67 5.36 -0.34 2.72 0 0 Z " fill="#1F3C63" transform="translate(301,628)"/>
<path d="M0 0 C1.06922447 0.01078583 1.06922447 0.01078583 2.16004944 0.02178955 C2.91136642 0.0214975 3.66268341 0.02120544 4.43676758 0.02090454 C6.9258622 0.02230046 9.41465931 0.03787376 11.90370178 0.05352783 C13.62720069 0.05725704 15.35070171 0.06010444 17.07420349 0.06210327 C21.61494275 0.06974704 26.15555448 0.08940185 30.69624329 0.11151123 C35.32787857 0.1319537 39.95953441 0.14110156 44.59120178 0.15118408 C53.68240371 0.17264708 62.7735109 0.20679194 71.86463928 0.24884033 C71.20463928 1.23884033 70.54463928 2.22884033 69.86463928 3.24884033 C67.34720407 3.50569794 65.08331759 3.56864088 62.56922913 3.49761963 C61.44225365 3.48364639 61.44225365 3.48364639 60.29251099 3.46939087 C57.80308011 3.43494831 55.31460824 3.37906847 52.82557678 3.32305908 C51.10209713 3.29503405 49.3785953 3.26834279 47.65507507 3.24293518 C43.11408602 3.17239575 38.5736247 3.08369114 34.03303528 2.99127197 C29.4015644 2.90019491 24.7698246 2.82620102 20.13807678 2.75079346 C11.04658476 2.60024786 1.95555864 2.43052142 -7.13536072 2.24884033 C-4.68227762 -0.20424276 -3.3469663 0.01414288 0 0 Z " fill="#54585E" transform="translate(275.13536071777344,341.75115966796875)"/>
<path d="M0 0 C0.33 0 0.66 0 1 0 C0.39311092 6.91853546 -0.89714549 13.57983156 -2.30078125 20.37890625 C-3.11357632 24.58818576 -3.62561912 28.73205801 -4 33 C-4.66 33 -5.32 33 -6 33 C-8.10435896 23.83100739 -9.47545004 15.45617311 -9 6 C-8.01 7.485 -8.01 7.485 -7 9 C-5.68 6.69 -4.36 4.38 -3 2 C-2.34 2.33 -1.68 2.66 -1 3 C-0.67 2.01 -0.34 1.02 0 0 Z " fill="#79A5CB" transform="translate(359,598)"/>
<path d="M0 0 C13.86 0.495 13.86 0.495 28 1 C28 1.33 28 1.66 28 2 C27.18015625 2.12117188 26.3603125 2.24234375 25.515625 2.3671875 C24.43796875 2.53476562 23.3603125 2.70234375 22.25 2.875 C20.64898437 3.11863281 20.64898437 3.11863281 19.015625 3.3671875 C16.28483211 3.94022953 14.31067819 4.45594869 12 6 C11.67 6.99 11.34 7.98 11 9 C10.01 9.495 10.01 9.495 9 10 C9.33 10.99 9.66 11.98 10 13 C9.01 14.485 9.01 14.485 8 16 C7.67 15.01 7.34 14.02 7 13 C5.68 12.34 4.36 11.68 3 11 C2.01 7.37 1.02 3.74 0 0 Z " fill="#1A2A45" transform="translate(333,272)"/>
<path d="M0 0 C0.99 0.33 1.98 0.66 3 1 C3 17.5 3 34 3 51 C-0.00527647 49.49736177 0.02782386 47.08347159 -1 44 C-1.05909758 42.54129912 -1.05936379 41.07977366 -1.02172852 39.62036133 C-1.00163223 38.73967484 -0.98153595 37.85898834 -0.96083069 36.95161438 C-0.93379562 36.00465195 -0.90676056 35.05768951 -0.87890625 34.08203125 C-0.85529526 33.10965012 -0.83168427 32.13726898 -0.80735779 31.13542175 C-0.73074376 28.02763183 -0.64670945 24.9200925 -0.5625 21.8125 C-0.50927707 19.7063925 -0.45653668 17.60027274 -0.40429688 15.49414062 C-0.27513159 10.32926819 -0.1393108 5.16460834 0 0 Z " fill="#243656" transform="translate(366,669)"/>
<path d="M0 0 C3.9460755 3.45957304 6.15467564 7.45460317 8.625 12 C9.01945313 12.7115625 9.41390625 13.423125 9.8203125 14.15625 C10.89263796 16.09802854 11.95771947 18.04193179 13 20 C13.5885376 21.01320313 13.5885376 21.01320313 14.18896484 22.046875 C15 24 15 24 14 27 C13.34 25.02 12.68 23.04 12 21 C11.21625 21.495 10.4325 21.99 9.625 22.5 C7 24 7 24 5 24 C4.1631665 20.37579876 3.33112766 16.75051363 2.5 13.125 C2.26152344 12.09246094 2.02304687 11.05992187 1.77734375 9.99609375 C1.55175781 9.00996094 1.32617188 8.02382813 1.09375 7.0078125 C0.88427734 6.09660645 0.67480469 5.18540039 0.45898438 4.24658203 C0 2 0 2 0 0 Z " fill="#47729B" transform="translate(735,626)"/>
<path d="M0 0 C16.83 0 33.66 0 51 0 C51 0.33 51 0.66 51 1 C33.6634886 3.33376115 16.45126869 3.21139256 -1 3 C-0.67 2.01 -0.34 1.02 0 0 Z " fill="#243249" transform="translate(550,225)"/>
<path d="M0 0 C0.99 0 1.98 0 3 0 C3 9.24 3 18.48 3 28 C2.01 28 1.02 28 0 28 C0 18.76 0 9.52 0 0 Z " fill="#253653" transform="translate(790,683)"/>
<path d="M0 0 C17.49 0 34.98 0 53 0 C52.01 0.99 51.02 1.98 50 3 C49.34 3 48.68 3 48 3 C48 2.34 48 1.68 48 1 C47.00782471 1.03552979 46.01564941 1.07105957 44.9934082 1.10766602 C41.24933104 1.23979779 37.50498618 1.36230902 33.76049805 1.48217773 C32.15168835 1.53496505 30.54295766 1.59022912 28.93432617 1.64819336 C19.19382053 1.99726103 9.70962731 2.03335175 0 1 C0 0.67 0 0.34 0 0 Z " fill="#18325A" transform="translate(193,178)"/>
<path d="M0 0 C2 2 2 2 2.046875 3.9609375 C1.94890625 4.75757813 1.8509375 5.55421875 1.75 6.375 C1.64300781 7.25671875 1.53601563 8.1384375 1.42578125 9.046875 C0.70491399 14.04665159 -0.11971973 19.02598913 -1 24 C-3.13181214 20.25712373 -2.95685425 18.21015871 -2 14 C-2.66 13.67 -3.32 13.34 -4 13 C-4.1875 9.625 -4.1875 9.625 -4 6 C-3.01 5.34 -2.02 4.68 -1 4 C-0.27617533 1.94074861 -0.27617533 1.94074861 0 0 Z " fill="#24314B" transform="translate(277,473)"/>
<path d="M0 0 C0.33 0 0.66 0 1 0 C1 8.91 1 17.82 1 27 C-5.5625 21.75 -5.5625 21.75 -8 18 C-7.75 15.6875 -7.75 15.6875 -7 14 C-5.35 14.33 -3.7 14.66 -2 15 C-2.66 15.66 -3.32 16.32 -4 17 C-3.01 18.98 -2.02 20.96 -1 23 C-0.67 15.41 -0.34 7.82 0 0 Z " fill="#131A2B" transform="translate(367,692)"/>
<path d="M0 0 C0.33 0.66 0.66 1.32 1 2 C-1.34996699 4.34996699 -2.47533165 4.47712782 -5.6875 5.0625 C-7.02941406 5.31193359 -7.02941406 5.31193359 -8.3984375 5.56640625 C-10.5295911 5.92159852 -12.67029387 6.21905493 -14.8125 6.5 C-17.99151101 6.87313207 -17.99151101 6.87313207 -20.75 8.125 C-23 9 -23 9 -26 8 C-17.59753724 4.20273318 -8.94048515 2.08537371 0 0 Z " fill="#4C769F" transform="translate(614,517)"/>
<path d="M0 0 C3.32366742 3.05099404 5.54224226 6.23449516 7.8125 10.125 C8.43769531 11.17945313 9.06289063 12.23390625 9.70703125 13.3203125 C10.13371094 14.20460938 10.56039062 15.08890625 11 16 C10.67 16.66 10.34 17.32 10 18 C9.34 16.35 8.68 14.7 8 13 C7.01 13 6.02 13 5 13 C5 14.65 5 16.3 5 18 C2.68622795 14.52934193 2.11015527 11.32959845 1.375 7.3125 C1.2409375 6.61060547 1.106875 5.90871094 0.96875 5.18554688 C0.6397283 3.45818294 0.31904688 1.72923409 0 0 Z " fill="#4E789F" transform="translate(735,626)"/>
<path d="M0 0 C0.80824219 0.40992188 1.61648437 0.81984375 2.44921875 1.2421875 C4.05216797 2.05042969 4.05216797 2.05042969 5.6875 2.875 C6.74324219 3.40867187 7.79898438 3.94234375 8.88671875 4.4921875 C11.55995905 5.78688105 14.2271133 6.94023254 17 8 C17 8.66 17 9.32 17 10 C18.98 10 20.96 10 23 10 C23 10.66 23 11.32 23 12 C15.01941401 11.69305439 7.28357454 8.62525677 1.14453125 3.4296875 C0 2 0 2 0 0 Z " fill="#222C40" transform="translate(143,626)"/>
<path d="M0 0 C7.66622017 3.45731498 13.41003682 11.14993336 18 18 C18 18.66 18 19.32 18 20 C18.99 20 19.98 20 21 20 C21.66 22.64 22.32 25.28 23 28 C20.05917646 25.20783347 17.73557693 22.33543779 15.4375 19 C11.80084031 13.899052 7.80370114 9.33581101 3.50561523 4.796875 C0 1.08730797 0 1.08730797 0 0 Z " fill="#171D2D" transform="translate(853,530)"/>
<path d="M0 0 C0.433125 0.66 0.86625 1.32 1.3125 2 C2.1478125 2.99 2.1478125 2.99 3 4 C3.99 4 4.98 4 6 4 C4.71480435 6.86697492 3.42870746 8.97607712 1 11 C0.34 11 -0.32 11 -1 11 C-1.66 12.32 -2.32 13.64 -3 15 C-4.43410153 11.21180727 -3.51009497 8.93478721 -2.0625 5.25 C-1.49208984 3.77273438 -1.49208984 3.77273438 -0.91015625 2.265625 C-0.60980469 1.51796875 -0.30945313 0.7703125 0 0 Z " fill="#20314E" transform="translate(313,431)"/>
<path d="M0 0 C0.99 0.33 1.98 0.66 3 1 C3 9.25 3 17.5 3 26 C2.01 25.67 1.02 25.34 0 25 C0 16.75 0 8.5 0 0 Z " fill="#27354F" transform="translate(886,495)"/>
<path d="M0 0 C0.33 0 0.66 0 1 0 C1.1953125 2.05078125 1.390625 4.1015625 1.5859375 6.15234375 C1.72257812 6.76207031 1.85921875 7.37179687 2 8 C2.66 8.33 3.32 8.66 4 9 C4.66 8.34 5.32 7.68 6 7 C4.64746536 13.45054982 2.96939767 19.71105679 1 26 C0.67 26 0.34 26 0 26 C0 17.42 0 8.84 0 0 Z " fill="#4F78A0" transform="translate(361,570)"/>
<path d="M0 0 C0.33 1.32 0.66 2.64 1 4 C3.97 4 6.94 4 10 4 C7.09907498 6.90092502 6.03482675 7.55461795 2.3125 8.6875 C1.50425781 8.93886719 0.69601562 9.19023438 -0.13671875 9.44921875 C-0.75160156 9.63097656 -1.36648438 9.81273437 -2 10 C-2 7.03 -2 4.06 -2 1 C-1.34 0.67 -0.68 0.34 0 0 Z " fill="#1C2C47" transform="translate(630,878)"/>
<path d="M0 0 C4.21365599 6.32048399 1.95026254 15.75424812 1 23 C-1.48731205 19.26903192 -1.26081721 16.37278041 -1.1875 12.0625 C-1.18685547 11.34642578 -1.18621094 10.63035156 -1.18554688 9.89257812 C-1.15695659 6.46492077 -1.06905246 3.27557672 0 0 Z " fill="#1D2C43" transform="translate(166,487)"/>
<path d="M0 0 C-4.75 4 -4.75 4 -7 4 C-7 3.34 -7 2.68 -7 2 C-15.58 2 -24.16 2 -33 2 C-33 1.67 -33 1.34 -33 1 C-28.62221249 0.68968832 -24.24399825 0.38671278 -19.86523438 0.09057617 C-18.37518574 -0.01123949 -16.88527346 -0.11507145 -15.39550781 -0.22094727 C-13.25618469 -0.37263695 -11.11647864 -0.51710835 -8.9765625 -0.66015625 C-7.68830566 -0.74918213 -6.40004883 -0.83820801 -5.07275391 -0.92993164 C-2 -1 -2 -1 0 0 Z " fill="#577FA7" transform="translate(637,433)"/>
<path d="M0 0 C8.58 0 17.16 0 26 0 C24.68 1.32 23.36 2.64 22 4 C21.01 3.67 20.02 3.34 19 3 C17.5211813 2.789235 16.03703148 2.61446626 14.55078125 2.46484375 C13.70322266 2.37783203 12.85566406 2.29082031 11.98242188 2.20117188 C10.66081055 2.0706543 10.66081055 2.0706543 9.3125 1.9375 C8.41982422 1.84662109 7.52714844 1.75574219 6.60742188 1.66210938 C4.40523735 1.43835801 2.20278232 1.21777399 0 1 C0 0.67 0 0.34 0 0 Z " fill="#081739" transform="translate(428,310)"/>
<path d="M0 0 C6.59229145 -0.7013076 10.49376557 1.50397814 16 5 C15.34 5.66 14.68 6.32 14 7 C13.4225 6.649375 12.845 6.29875 12.25 5.9375 C9.57291478 4.82204782 8.71439649 5.29951058 6 6 C5.01 5.34 4.02 4.68 3 4 C3.33 3.34 3.66 2.68 4 2 C2.68 2 1.36 2 0 2 C0 1.34 0 0.68 0 0 Z " fill="#1D2A45" transform="translate(303,178)"/>
<path d="M0 0 C0.33 0.66 0.66 1.32 1 2 C0.67 2.969375 0.34 3.93875 0 4.9375 C-1.33339097 7.99162848 -1.33339097 7.99162848 0 11 C0.78375 10.484375 1.5675 9.96875 2.375 9.4375 C3.24125 8.963125 4.1075 8.48875 5 8 C5.66 8.33 6.32 8.66 7 9 C3.37 11.31 -0.26 13.62 -4 16 C-5.56374525 12.87250951 -4.16043785 10.69020303 -3.125 7.4375 C-2.75632812 6.26058594 -2.38765625 5.08367188 -2.0078125 3.87109375 C-1 1 -1 1 0 0 Z " fill="#0C2044" transform="translate(562,526)"/>
<path d="M0 0 C4.72065967 1.54269924 9.41664092 3.07794619 14 5 C10.1496895 7.56687367 8.41430237 6.83288724 4 6 C4 5.34 4 4.68 4 4 C2.68 4 1.36 4 0 4 C0 2.68 0 1.36 0 0 Z " fill="#24324C" transform="translate(671,241)"/>
<path d="M0 0 C4 0 4 0 7 1 C7.35192512 2.32854718 7.68368074 3.66252812 8 5 C10.15534322 6.88914545 12.25317821 8.57580254 14.5625 10.25 C15.17802734 10.70890625 15.79355469 11.1678125 16.42773438 11.640625 C17.94494792 12.76971415 19.47159183 13.88611143 21 15 C16.8886724 15 15.41912503 13.30430647 12.1875 10.8125 C11.65286133 10.40193359 11.11822266 9.99136719 10.56738281 9.56835938 C6.97205255 6.79463109 3.3941517 4.01702373 0 1 C0 0.67 0 0.34 0 0 Z " fill="#527CA2" transform="translate(561,641)"/>
<path d="M0 0 C2.35171131 0.59861742 4.6859378 1.26924352 7 2 C7.33 2.66 7.66 3.32 8 4 C11.02934491 4.65772428 11.02934491 4.65772428 14 5 C14 5.99 14 6.98 14 8 C8.32767882 8 5.19426261 6.96124802 1 3 C0.67 2.01 0.34 1.02 0 0 Z " fill="#243652" transform="translate(567,804)"/>
<path d="M0 0 C4.9723422 1.49170266 9.41845739 3.60457417 14 6 C13.67 6.66 13.34 7.32 13 8 C11.02 8 9.04 8 7 8 C6.67 7.01 6.34 6.02 6 5 C5.34 5 4.68 5 4 5 C4 4.34 4 3.68 4 3 C2.68 2.67 1.36 2.34 0 2 C0 1.34 0 0.68 0 0 Z " fill="#28344C" transform="translate(685,247)"/>
<path d="M0 0 C2.15229884 3.22844826 2.60309873 5.18974777 3 9 C2.67 9.99 2.34 10.98 2 12 C1.34 12 0.68 12 0 12 C0 13.65 0 15.3 0 17 C-0.66 17 -1.32 17 -2 17 C-1.34 11.39 -0.68 5.78 0 0 Z " fill="#2A364B" transform="translate(321,508)"/>
<path d="M0 0 C2.49505962 2.49505962 2.35948376 3.67328888 2.625 7.125 C2.69976563 8.03507813 2.77453125 8.94515625 2.8515625 9.8828125 C2.90054688 10.58148437 2.94953125 11.28015625 3 12 C0.03595495 9.19195732 -2.44499019 6.81684226 -4 3 C-3.01 2.67 -2.02 2.34 -1 2 C-0.67 1.34 -0.34 0.68 0 0 Z " fill="#0D2145" transform="translate(640,637)"/>
<path d="M0 0 C4.10958767 1.45044271 7.43258745 3.51110752 11 6 C11.33 5.34 11.66 4.68 12 4 C13.32 4.33 14.64 4.66 16 5 C15.67 6.98 15.34 8.96 15 11 C13.2458877 9.92333797 11.49687413 8.83836661 9.75 7.75 C8.77546875 7.14671875 7.8009375 6.5434375 6.796875 5.921875 C4.20294755 4.13945558 2.13622381 2.29898372 0 0 Z " fill="#3F6389" transform="translate(836,489)"/>
<path d="M0 0 C0.33 1.65 0.66 3.3 1 5 C0.01 5 -0.98 5 -2 5 C-1.505 5.433125 -1.01 5.86625 -0.5 6.3125 C1 8 1 8 1 11 C1.66 11 2.32 11 3 11 C2.67 11.99 2.34 12.98 2 14 C-1.81300782 10.7129243 -3.22972246 7.60272162 -5 3 C-2.25 0 -2.25 0 0 0 Z " fill="#202E46" transform="translate(374,665)"/>
<path d="M0 0 C2 2 2 2 2.1953125 4.6015625 C2.17210937 5.59929688 2.14890625 6.59703125 2.125 7.625 C2.10695313 8.62789062 2.08890625 9.63078125 2.0703125 10.6640625 C2.03550781 11.82035156 2.03550781 11.82035156 2 13 C1.01 13.495 1.01 13.495 0 14 C-0.12375 13.21625 -0.2475 12.4325 -0.375 11.625 C-0.79117993 8.85942178 -0.79117993 8.85942178 -3 7 C-3 5.68 -3 4.36 -3 3 C-2.34 3 -1.68 3 -1 3 C-0.67 2.01 -0.34 1.02 0 0 Z " fill="#132640" transform="translate(732,545)"/>
<path d="M0 0 C-0.33 0.33 -0.66 0.66 -1 1 C2.63 2.32 6.26 3.64 10 5 C6.85178538 6.04940487 6.0650509 5.98606526 2.98828125 5.22265625 C1.85229492 4.94711914 1.85229492 4.94711914 0.69335938 4.66601562 C-0.09232422 4.46685547 -0.87800781 4.26769531 -1.6875 4.0625 C-2.48478516 3.86720703 -3.28207031 3.67191406 -4.10351562 3.47070312 C-6.07080389 2.98771618 -8.03565054 2.4948037 -10 2 C-6.19832777 -0.53444815 -4.31588991 -1.33941411 0 0 Z " fill="#79A6CC" transform="translate(758,396)"/>
<path d="M0 0 C0 1.32 0 2.64 0 4 C-5.94 4.495 -5.94 4.495 -12 5 C-7.98293024 0.98293024 -5.6913658 -0.31618699 0 0 Z " fill="#0F2345" transform="translate(493,324)"/>
<path d="M0 0 C2 1 2 1 3 2 C3 2.66 3 3.32 3 4 C-0.72965139 6.03435531 -2.66905042 7 -7 7 C-7.33 7.99 -7.66 8.98 -8 10 C-8.66 9.67 -9.32 9.34 -10 9 C-10 8.34 -10 7.68 -10 7 C-7.8125 5.2734375 -7.8125 5.2734375 -5 3.375 C-4.071875 2.74335938 -3.14375 2.11171875 -2.1875 1.4609375 C-1.1046875 0.73777344 -1.1046875 0.73777344 0 0 Z " fill="#7DA9D1" transform="translate(452,311)"/>
<path d="M0 0 C3.26008643 3.16952847 6.22237877 6.39937989 9 10 C7.24859857 9.54705135 5.49892656 9.08741252 3.75 8.625 C2.28820312 8.24214844 2.28820312 8.24214844 0.796875 7.8515625 C-1.65837303 7.10401491 -3.75617405 6.22876183 -6 5 C-2.79937313 3.39968656 -0.27728194 4.96826309 3 6 C2.2575 5.071875 2.2575 5.071875 1.5 4.125 C0 2 0 2 0 0 Z " fill="#0B2548" transform="translate(560,728)"/>
<path d="M0 0 C1.28961193 2.57922387 0.79211692 3.40291211 0.00390625 6.1328125 C-0.22490234 6.93847656 -0.45371094 7.74414062 -0.68945312 8.57421875 C-0.93630859 9.41597656 -1.18316406 10.25773437 -1.4375 11.125 C-1.68048828 11.97449219 -1.92347656 12.82398438 -2.17382812 13.69921875 C-2.7761431 15.80141612 -3.38510525 17.90145431 -4 20 C-4.93818736 16.66558984 -4.90782987 14.63131949 -4.0625 11.25 C-3.77052734 10.05117188 -3.77052734 10.05117188 -3.47265625 8.828125 C-3.31667969 8.22484375 -3.16070312 7.6215625 -3 7 C-3.66 6.67 -4.32 6.34 -5 6 C-3.35 4.02 -1.7 2.04 0 0 Z " fill="#081C3F" transform="translate(440,461)"/>
<path d="M0 0 C1 2 1 2 0.0625 5.125 C-0.288125 6.07375 -0.63875 7.0225 -1 8 C0.32 7.34 1.64 6.68 3 6 C2.06725891 7.12894876 1.12859878 8.25300876 0.1875 9.375 C-0.59560547 10.31472656 -0.59560547 10.31472656 -1.39453125 11.2734375 C-3 13 -3 13 -6 15 C-3.10933941 4.44191344 -3.10933941 4.44191344 0 0 Z " fill="#8EB9DE" transform="translate(347,431)"/>
<path d="M0 0 C3.45201639 1.47721422 5.64961936 3.43794001 8.25 6.125 C8.95640625 6.84945313 9.6628125 7.57390625 10.390625 8.3203125 C11.18726563 9.15175781 11.18726563 9.15175781 12 10 C11.34 10.66 10.68 11.32 10 12 C9.278125 11.2575 8.55625 10.515 7.8125 9.75 C5.10300342 6.98447612 5.10300342 6.98447612 2.1875 4.875 C1.1046875 3.946875 1.1046875 3.946875 0 3 C0 2.01 0 1.02 0 0 Z " fill="#354051" transform="translate(843,408)"/>
<path d="M0 0 C2.85984547 2.51632049 4.41468822 5.33885553 6.1875 8.6875 C6.71730469 9.68136719 7.24710938 10.67523437 7.79296875 11.69921875 C8.19128906 12.45847656 8.58960938 13.21773437 9 14 C5.23511958 12.27845212 2.84936103 10.00765886 0 7 C0.66 6.67 1.32 6.34 2 6 C1.34 4.02 0.68 2.04 0 0 Z " fill="#537DA5" transform="translate(512,690)"/>
<path d="M0 0 C0.66 0.33 1.32 0.66 2 1 C1.21625 1.433125 0.4325 1.86625 -0.375 2.3125 C-3.21698375 3.89220247 -3.21698375 3.89220247 -5 7 C-5.66 7 -6.32 7 -7 7 C-9.02456848 8.29572383 -11.02678947 9.6273318 -13 11 C-13.66 10.67 -14.32 10.34 -15 10 C-13.2527456 8.70462174 -11.50208483 7.41383727 -9.75 6.125 C-8.77546875 5.40570313 -7.8009375 4.68640625 -6.796875 3.9453125 C-2.51830627 0.96943649 -2.51830627 0.96943649 0 0 Z " fill="#38648C" transform="translate(475,331)"/>
<path d="M0 0 C2.64 0.33 5.28 0.66 8 1 C8 1.99 8 2.98 8 4 C11.465 5.485 11.465 5.485 15 7 C12 8 12 8 9.08203125 6.78515625 C7.46361328 5.93244141 7.46361328 5.93244141 5.8125 5.0625 C4.72582031 4.49660156 3.63914062 3.93070312 2.51953125 3.34765625 C1.68808594 2.90292969 0.85664063 2.45820313 0 2 C0 1.34 0 0.68 0 0 Z " fill="#80ABCF" transform="translate(389,295)"/>
<path d="M0 0 C4.29 0 8.58 0 13 0 C13 0.99 13 1.98 13 3 C10.36 3.66 7.72 4.32 5 5 C5 4.01 5 3.02 5 2 C3.35 1.67 1.7 1.34 0 1 C0 0.67 0 0.34 0 0 Z " fill="#263752" transform="translate(427,228)"/>
<path d="M0 0 C0.33 0 0.66 0 1 0 C1.05819424 3.24992446 1.09366116 6.49971435 1.125 9.75 C1.14175781 10.67039062 1.15851562 11.59078125 1.17578125 12.5390625 C1.18222656 13.42851563 1.18867187 14.31796875 1.1953125 15.234375 C1.20578613 16.05131836 1.21625977 16.86826172 1.22705078 17.70996094 C0.97829916 20.21887518 0.25700129 21.83395625 -1 24 C-1.66 24 -2.32 24 -3 24 C-2.01 16.08 -1.02 8.16 0 0 Z " fill="#081C41" transform="translate(724,724)"/>
<path d="M0 0 C0.99 0 1.98 0 3 0 C3.042721 1.66611905 3.04063832 3.33382885 3 5 C2.67 5.33 2.34 5.66 2 6 C1.92794489 7.68608966 1.91613932 9.37500659 1.9375 11.0625 C1.94652344 11.98160156 1.95554687 12.90070313 1.96484375 13.84765625 C1.97644531 14.55792969 1.98804688 15.26820313 2 16 C-1.53664607 10.6950309 -1.10261347 6.12563041 0 0 Z " fill="#323E57" transform="translate(294,499)"/>
<path d="M0 0 C2.02907167 3.3146667 2.12742133 5.4315979 1.625 9.25 C1.51414062 10.14203125 1.40328125 11.0340625 1.2890625 11.953125 C1.19367187 12.62859375 1.09828125 13.3040625 1 14 C0.67 14 0.34 14 0 14 C-0.33 10.7 -0.66 7.4 -1 4 C-1.99 3.67 -2.98 3.34 -4 3 C-3.01 2.67 -2.02 2.34 -1 2 C-0.67 1.34 -0.34 0.68 0 0 Z M-2 9 C-2 12 -2 12 -2 12 Z " fill="#273752" transform="translate(885,479)"/>
<path d="M0 0 C-3.26613695 1.91302307 -5.99445248 2.35674661 -9.75 2.625 C-10.73484375 2.69976562 -11.7196875 2.77453125 -12.734375 2.8515625 C-13.48203125 2.90054688 -14.2296875 2.94953125 -15 3 C-15 2.01 -15 1.02 -15 0 C-9.96266834 -1.5111995 -5.11828973 -0.64599773 0 0 Z " fill="#2A3C59" transform="translate(518,232)"/>
<path d="M0 0 C3.3 0.66 6.6 1.32 10 2 C10 2.33 10 2.66 10 3 C7.25162151 3.53107314 4.50187625 4.05015881 1.75 4.5625 C0.97269531 4.71396484 0.19539062 4.86542969 -0.60546875 5.02148438 C-1.35957031 5.16005859 -2.11367188 5.29863281 -2.890625 5.44140625 C-3.58188477 5.57232666 -4.27314453 5.70324707 -4.98535156 5.83813477 C-7.21287942 6.01710362 -8.87506962 5.65206197 -11 5 C-7.12315913 3.80712589 -4.08378077 3 0 3 C0 2.01 0 1.02 0 0 Z " fill="#89B5DB" transform="translate(747,368)"/>
<path d="M0 0 C2.79387762 0.61620855 5.58480926 1.24249695 8.375 1.875 C9.1690625 2.04902344 9.963125 2.22304688 10.78125 2.40234375 C11.54179687 2.57636719 12.30234375 2.75039063 13.0859375 2.9296875 C13.7876709 3.08679199 14.4894043 3.24389648 15.21240234 3.40576172 C17 4 17 4 19 6 C14.29364011 5.55177525 9.64419473 5.01954794 5 4.125 C4.2575 3.98320312 3.515 3.84140625 2.75 3.6953125 C2.1725 3.46585937 1.595 3.23640625 1 3 C0.67 2.01 0.34 1.02 0 0 Z " fill="#0B1939" transform="translate(401,303)"/>
<path d="M0 0 C0.33 0 0.66 0 1 0 C1.33 3.63 1.66 7.26 2 11 C1.34 10.67 0.68 10.34 0 10 C-2.0374763 9.77141886 -4.08040303 9.58975722 -6.125 9.4375 C-7.76855469 9.31181641 -7.76855469 9.31181641 -9.4453125 9.18359375 C-10.28835938 9.12300781 -11.13140625 9.06242188 -12 9 C-12 8.67 -12 8.34 -12 8 C-8.37 8 -4.74 8 -1 8 C-0.67 5.36 -0.34 2.72 0 0 Z " fill="#2E3C55" transform="translate(301,628)"/>
<path d="M0 0 C0.99 0 1.98 0 3 0 C3.33 2.64 3.66 5.28 4 8 C2.02 8.99 2.02 8.99 0 10 C-1.2380014 6.42355152 -0.74926071 3.66305234 0 0 Z " fill="#23324E" transform="translate(296,487)"/>
<path d="M0 0 C0 0.99 0 1.98 0 3 C-0.66 3 -1.32 3 -2 3 C-2 3.66 -2 4.32 -2 5 C-4.64 4.34 -7.28 3.68 -10 3 C-9.67 2.01 -9.34 1.02 -9 0 C-5.62182575 -0.84454356 -3.32534757 -1.10844919 0 0 Z " fill="#2A3B57" transform="translate(647,410)"/>
<path d="M0 0 C1.13643966 3.40931897 0.86747764 4.00335456 -0.4375 7.1875 C-0.72496094 7.90292969 -1.01242188 8.61835938 -1.30859375 9.35546875 C-1.53675781 9.89816406 -1.76492187 10.44085938 -2 11 C-2.99 11 -3.98 11 -5 11 C-4.55123384 9.35153231 -4.09069512 7.70626545 -3.625 6.0625 C-3.36976563 5.14597656 -3.11453125 4.22945313 -2.8515625 3.28515625 C-2 1 -2 1 0 0 Z " fill="#202E45" transform="translate(164,339)"/>
<path d="M0 0 C-2.64 0.66 -5.28 1.32 -8 2 C-8 1.34 -8 0.68 -8 0 C-12.62 0 -17.24 0 -22 0 C-22 -0.33 -22 -0.66 -22 -1 C-18.70926338 -1.22531972 -15.41750581 -1.42735982 -12.125 -1.625 C-10.71927734 -1.72167969 -10.71927734 -1.72167969 -9.28515625 -1.8203125 C-8.38925781 -1.871875 -7.49335938 -1.9234375 -6.5703125 -1.9765625 C-5.74289551 -2.02893066 -4.91547852 -2.08129883 -4.06298828 -2.13525391 C-2 -2 -2 -2 0 0 Z " fill="#1A1B24" transform="translate(448,228)"/>
<path d="M0 0 C1.32 0 2.64 0 4 0 C4 3.3 4 6.6 4 10 C3.01 10 2.02 10 1 10 C0.67 6.7 0.34 3.4 0 0 Z " fill="#303E58" transform="translate(626,873)"/>
<path d="M0 0 C1.0326802 2.78823655 1.04509293 3.8677274 0.0625 6.75 C-0.288125 7.4925 -0.63875 8.235 -1 9 C0.65 8.34 2.3 7.68 4 7 C1.48580485 9.69378051 -0.67240077 11.44805246 -4 13 C-3.52343588 11.20763933 -3.04366502 9.41613103 -2.5625 7.625 C-2.29566406 6.62726562 -2.02882813 5.62953125 -1.75390625 4.6015625 C-1 2 -1 2 0 0 Z " fill="#527AA3" transform="translate(679,817)"/>
<path d="M0 0 C0.99 0 1.98 0 3 0 C3.33 2.97 3.66 5.94 4 9 C3.01 9.495 3.01 9.495 2 10 C-1.22265625 4.7265625 -1.22265625 4.7265625 -2 3 C-1 1 -1 1 0 0 Z " fill="#222F48" transform="translate(348,687)"/>
<path d="M0 0 C0.763125 0.495 1.52625 0.99 2.3125 1.5 C4.92363751 3.24368308 4.92363751 3.24368308 8 3 C8 4.32 8 5.64 8 7 C9.98 7.66 11.96 8.32 14 9 C11 10 11 10 8.80859375 8.92578125 C8.02613281 8.39339844 7.24367188 7.86101562 6.4375 7.3125 C5.65246094 6.79300781 4.86742187 6.27351563 4.05859375 5.73828125 C1.93321591 3.94360736 1.02964585 2.55463485 0 0 Z " fill="#1C3257" transform="translate(609,390)"/>
<path d="M0 0 C3.60296594 -0.41176754 4.78402067 -0.1535853 7.8125 2 C8.534375 2.66 9.25625 3.32 10 4 C6.18510326 5.46726798 3.70988378 4.43336419 0 3 C0 2.01 0 1.02 0 0 Z " fill="#1F314B" transform="translate(817,391)"/>
<path d="M0 0 C0 0.99 0 1.98 0 3 C-1.0725 3.144375 -2.145 3.28875 -3.25 3.4375 C-5.91662949 3.83749442 -8.41399729 4.27591924 -11 5 C-11 4.01 -11 3.02 -11 2 C-3.375 0 -3.375 0 0 0 Z " fill="#2B3951" transform="translate(392,266)"/>
<path d="M0 0 C0.99 1.485 0.99 1.485 2 3 C2.66 2.67 3.32 2.34 4 2 C3.67 5.3 3.34 8.6 3 12 C2.01 11.34 1.02 10.68 0 10 C-0.29296875 7.6171875 -0.29296875 7.6171875 -0.1875 4.875 C-0.16042969 3.96492187 -0.13335937 3.05484375 -0.10546875 2.1171875 C-0.07066406 1.41851563 -0.03585937 0.71984375 0 0 Z " fill="#719DC3" transform="translate(351,613)"/>
<path d="M0 0 C2 3 2 3 2 5 C3.32 5.66 4.64 6.32 6 7 C0.93001981 6.34580901 -3.41990777 4.1453591 -8 2 C-5 1 -5 1 -2 1 C-1.34 0.67 -0.68 0.34 0 0 Z " fill="#1A3258" transform="translate(587,360)"/>
<path d="M0 0 C1.66666667 1.66666667 3.33333333 3.33333333 5 5 C5.53625 5.515625 6.0725 6.03125 6.625 6.5625 C8.25234694 8.26381725 9.62036528 10.09479015 11 12 C10.67 12.66 10.34 13.32 10 14 C8.51207039 12.42489875 7.0349394 10.83959136 5.5625 9.25 C4.73878906 8.36828125 3.91507812 7.4865625 3.06640625 6.578125 C1.16931982 4.21124968 0.37897068 2.9490809 0 0 Z " fill="#252A38" transform="translate(343,295)"/>
<path d="M0 0 C2.4375 1.3125 2.4375 1.3125 3.25 3.4375 C3.311875 4.05625 3.37375 4.675 3.4375 5.3125 C0.5625 5.4375 0.5625 5.4375 -2.5625 5.3125 C-3.2225 4.6525 -3.8825 3.9925 -4.5625 3.3125 C-4.5625 2.3225 -4.5625 1.3325 -4.5625 0.3125 C-2.5625 -0.6875 -2.5625 -0.6875 0 0 Z " fill="#1F3351" transform="translate(703.5625,255.6875)"/>
<path d="M0 0 C1.13598633 0.00483398 1.13598633 0.00483398 2.29492188 0.00976562 C3.47344727 0.02233398 3.47344727 0.02233398 4.67578125 0.03515625 C5.47306641 0.03966797 6.27035156 0.04417969 7.09179688 0.04882812 C9.05732382 0.06059775 11.0228121 0.07853277 12.98828125 0.09765625 C12.98828125 0.42765625 12.98828125 0.75765625 12.98828125 1.09765625 C8.03828125 1.09765625 3.08828125 1.09765625 -2.01171875 1.09765625 C-2.01171875 1.75765625 -2.01171875 2.41765625 -2.01171875 3.09765625 C-3.00171875 3.42765625 -3.99171875 3.75765625 -5.01171875 4.09765625 C-5.67171875 3.76765625 -6.33171875 3.43765625 -7.01171875 3.09765625 C-7.01171875 2.43765625 -7.01171875 1.77765625 -7.01171875 1.09765625 C-4.30455633 0.19526878 -2.77395107 -0.02085677 0 0 Z " fill="#19355A" transform="translate(588.01171875,226.90234375)"/>
<path d="M0 0 C0.33 0 0.66 0 1 0 C1.99 4.29 2.98 8.58 4 13 C3.34 13 2.68 13 2 13 C1.34 11.35 0.68 9.7 0 8 C-0.66 8 -1.32 8 -2 8 C-2.33 6.68 -2.66 5.36 -3 4 C-2.34 4 -1.68 4 -1 4 C-0.67 2.68 -0.34 1.36 0 0 Z " fill="#2F3A4D" transform="translate(734,554)"/>
<path d="M0 0 C0.66 0.33 1.32 0.66 2 1 C2 1.66 2 2.32 2 3 C2.66 3.33 3.32 3.66 4 4 C-1.94 4.495 -1.94 4.495 -8 5 C-8 4.01 -8 3.02 -8 2 C-6.865625 1.855625 -5.73125 1.71125 -4.5625 1.5625 C-1.19222799 1.38828522 -1.19222799 1.38828522 0 0 Z " fill="#6490B6" transform="translate(715,377)"/>
<path d="M0 0 C3 1 3 1 3 1 Z M-2 1 C-0.0625 1.75 -0.0625 1.75 2 3 C2.75 5.125 2.75 5.125 3 7 C0 7 0 7 -2.6875 4.5 C-3.450625 3.675 -4.21375 2.85 -5 2 C-4.01 2 -3.02 2 -2 2 C-2 1.67 -2 1.34 -2 1 Z " fill="#202F45" transform="translate(581,809)"/>
<path d="M0 0 C2 1 4 2 6 3 C6 3.66 6 4.32 6 5 C6.99 5.33 7.98 5.66 9 6 C8.67 6.99 8.34 7.98 8 9 C3.71675909 6.48592381 1.35468295 4.87685861 0 0 Z " fill="#25344D" transform="translate(421,726)"/>
<path d="M0 0 C1.485 0.99 1.485 0.99 3 2 C3 2.66 3 3.32 3 4 C2.34 4 1.68 4 1 4 C1 9.61 1 15.22 1 21 C0.67 21 0.34 21 0 21 C0 14.07 0 7.14 0 0 Z " fill="#5B83AB" transform="translate(636,575)"/>
<path d="M0 0 C0.18451025 10.55808656 0.18451025 10.55808656 -1 15 C-1.33 15 -1.66 15 -2 15 C-2.33 10.38 -2.66 5.76 -3 1 C-1 0 -1 0 0 0 Z " fill="#262B37" transform="translate(298,550)"/>
<path d="M0 0 C2.01136276 2.55991624 3.62845496 5.04590299 5 8 C4.34 8.66 3.68 9.32 3 10 C0.9375 8.375 0.9375 8.375 -1 6 C-0.75 2.75 -0.75 2.75 0 0 Z " fill="#26374E" transform="translate(319,295)"/>
<path d="M0 0 C0.66 0 1.32 0 2 0 C1.67 2.97 1.34 5.94 1 9 C0.01 9 -0.98 9 -2 9 C-2.25 3.375 -2.25 3.375 0 0 Z " fill="#2D3C55" transform="translate(789,722)"/>
<path d="M0 0 C0.33 0.66 0.66 1.32 1 2 C-0.32 2.99 -1.64 3.98 -3 5 C-2.34 5.66 -1.68 6.32 -1 7 C-3.64 7.66 -6.28 8.32 -9 9 C-8.06725891 7.87105124 -7.12859878 6.74699124 -6.1875 5.625 C-5.66542969 4.99851562 -5.14335938 4.37203125 -4.60546875 3.7265625 C-3 2 -3 2 0 0 Z " fill="#43668D" transform="translate(638,473)"/>
<path d="M0 0 C1.125 1.5625 1.125 1.5625 2 4 C1.3125 7.6875 1.3125 7.6875 0 11 C-0.99 11.33 -1.98 11.66 -3 12 C-2.49202991 7.6822542 -1.80317221 3.96697886 0 0 Z " fill="#7FAAD0" transform="translate(366,458)"/>
<path d="M0 0 C0.66 0.99 1.32 1.98 2 3 C2.66 3 3.32 3 4 3 C3.3125 4.9375 3.3125 4.9375 2 7 C-0.625 7.75 -0.625 7.75 -3 8 C-2.45276317 4.62537285 -1.9451 2.91765 0 0 Z " fill="#79A4C9" transform="translate(352,420)"/>
<path d="M0 0 C2.97 0.33 5.94 0.66 9 1 C9 1.99 9 2.98 9 4 C2.25 4.125 2.25 4.125 0 3 C0 2.01 0 1.02 0 0 Z " fill="#2B3A55" transform="translate(613,409)"/>
<path d="M0 0 C0.33 0.99 0.66 1.98 1 3 C3.01508358 3.73323796 3.01508358 3.73323796 5 4 C4.360625 4.103125 3.72125 4.20625 3.0625 4.3125 C2.381875 4.539375 1.70125 4.76625 1 5 C0.67 5.99 0.34 6.98 0 8 C-2 5 -2 5 -2 1 C-1.34 0.67 -0.68 0.34 0 0 Z " fill="#152542" transform="translate(788,375)"/>
<path d="M0 0 C1.32 0 2.64 0 4 0 C4.66 1.98 5.32 3.96 6 6 C4.125 6.625 4.125 6.625 2 7 C1.34 6.34 0.68 5.68 0 5 C0 3.33333333 0 1.66666667 0 0 Z " fill="#273854" transform="translate(385,325)"/>
<path d="M0 0 C0.66 1.32 1.32 2.64 2 4 C4.05000871 4.80528889 4.05000871 4.80528889 6 5 C4.71034824 6.37562854 3.37310707 7.70766393 2 9 C1.34 9 0.68 9 0 9 C0 6.03 0 3.06 0 0 Z " fill="#182034" transform="translate(628,879)"/>
<path d="M0 0 C6.70459519 3.95623632 6.70459519 3.95623632 7.9375 8.3125 C7.958125 9.199375 7.97875 10.08625 8 11 C2.19794344 5.35475578 2.19794344 5.35475578 0 2 C0 1.34 0 0.68 0 0 Z " fill="#262D40" transform="translate(606,836)"/>
<path d="M0 0 C2.3828125 0.0234375 2.3828125 0.0234375 5.125 0.375 C6.03507813 0.48585937 6.94515625 0.59671875 7.8828125 0.7109375 C8.93082031 0.85402344 8.93082031 0.85402344 10 1 C9.67 1.66 9.34 2.32 9 3 C5.37 2.67 1.74 2.34 -2 2 C-1.34 1.34 -0.68 0.68 0 0 Z " fill="#0F1F42" transform="translate(615,252)"/>
<path d="M0 0 C1.5625 1.25 1.5625 1.25 3 3 C2.6875 5.1875 2.6875 5.1875 2 7 C1.34 7 0.68 7 0 7 C0 6.34 0 5.68 0 5 C-0.99 5 -1.98 5 -3 5 C-2.67 4.01 -2.34 3.02 -2 2 C-1.34 2 -0.68 2 0 2 C0 1.34 0 0.68 0 0 Z " fill="#152844" transform="translate(332,205)"/>
<path d="M0 0 C2.475 0.495 2.475 0.495 5 1 C4.67 2.65 4.34 4.3 4 6 C2.68 5.67 1.36 5.34 0 5 C0 3.35 0 1.7 0 0 Z " fill="#1D2C45" transform="translate(625,867)"/>
<path d="M0 0 C0.99 0 1.98 0 3 0 C2.34 2.97 1.68 5.94 1 9 C-1 7 -1 7 -1.1875 3.9375 C-1 1 -1 1 0 0 Z " fill="#2C384F" transform="translate(785,736)"/>
<path d="M0 0 C0.66 0.33 1.32 0.66 2 1 C-1.465 3.97 -1.465 3.97 -5 7 C-5.66 6.67 -6.32 6.34 -7 6 C-6.67 4.35 -6.34 2.7 -6 1 C-5.34 1 -4.68 1 -4 1 C-3.67 1.33 -3.34 1.66 -3 2 C-2.01 1.34 -1.02 0.68 0 0 Z " fill="#7DABD0" transform="translate(362,425)"/>
<path d="M0 0 C2.00720923 0.28674418 4.0085944 0.61866701 6 1 C6 1.66 6 2.32 6 3 C7.32 3.66 8.64 4.32 10 5 C3.6 5.49230769 3.6 5.49230769 0.5625 3 C0.046875 2.34 -0.46875 1.68 -1 1 C-0.67 0.67 -0.34 0.34 0 0 Z " fill="#223554" transform="translate(650,393)"/>
<path d="M0 0 C1.42944945 2.35438733 2.08661261 3.48032433 1.625 6.25 C1.41875 6.8275 1.2125 7.405 1 8 C-0.32 8.33 -1.64 8.66 -3 9 C-2.5020163 5.26512223 -2.12508244 3.18762365 0 0 Z " fill="#28354F" transform="translate(338,384)"/>
<path d="M0 0 C1.98 1.65 3.96 3.3 6 5 C5.01 5.495 5.01 5.495 4 6 C3.01 7.485 3.01 7.485 2 9 C0.50178941 5.62902617 0 3.79557881 0 0 Z " fill="#345479" transform="translate(528,659)"/>
<path d="M0 0 C0.928125 0.2784375 0.928125 0.2784375 1.875 0.5625 C4.04160178 1.23686176 4.04160178 1.23686176 6 0 C6.33 1.32 6.66 2.64 7 4 C6.34 4 5.68 4 5 4 C4.34 4.66 3.68 5.32 3 6 C2.01 5.67 1.02 5.34 0 5 C0 3.35 0 1.7 0 0 Z " fill="#132342" transform="translate(321,619)"/>
<path d="M0 0 C0.33 1.32 0.66 2.64 1 4 C1.99 4.33 2.98 4.66 4 5 C3.34 6.98 2.68 8.96 2 11 C1.01 10.67 0.02 10.34 -1 10 C-0.67 6.7 -0.34 3.4 0 0 Z " fill="#253B5F" transform="translate(321,612)"/>
<path d="M0 0 C0.66 0.99 1.32 1.98 2 3 C0.98819642 6.77126791 0.32378142 7.78414572 -3 10 C-3 7.69 -3 5.38 -3 3 C-2.01 3.33 -1.02 3.66 0 4 C0 2.68 0 1.36 0 0 Z " fill="#0E1E3A" transform="translate(298,493)"/>
<path d="M0 0 C0.99 0.33 1.98 0.66 3 1 C2.6875 3.875 2.6875 3.875 2 7 C1.01 7.66 0.02 8.32 -1 9 C-1.125 2.25 -1.125 2.25 0 0 Z " fill="#17243B" transform="translate(299,476)"/>
<path d="M0 0 C4.455 0.99 4.455 0.99 9 2 C8.01 3.485 8.01 3.485 7 5 C4.03 4.505 4.03 4.505 1 4 C0.67 2.68 0.34 1.36 0 0 Z " fill="#6996BD" transform="translate(756,394)"/>
<path d="M0 0 C0.93065133 2.60582371 1.14917407 3.64198224 0.0625 6.25 C-0.4634375 7.11625 -0.4634375 7.11625 -1 8 C-1 7.34 -1 6.68 -1 6 C-3.475 7.485 -3.475 7.485 -6 9 C-4.47291037 5.56404834 -2.40072955 2.88087546 0 0 Z " fill="#80AED3" transform="translate(381,376)"/>
<path d="M0 0 C0.66 0 1.32 0 2 0 C3 1 4 2 5 3 C5.66 3 6.32 3 7 3 C7.33 5.31 7.66 7.62 8 10 C4.71211176 6.88983545 2.16264012 3.98381075 0 0 Z " fill="#0B1A39" transform="translate(728,312)"/>
<path d="M0 0 C-0.33 0.99 -0.66 1.98 -1 3 C-1.99 3 -2.98 3 -4 3 C-4 2.34 -4 1.68 -4 1 C-5.98 1.33 -7.96 1.66 -10 2 C-6.64608848 -1.35391152 -4.35183427 -1.05855428 0 0 Z " fill="#193358" transform="translate(446,252)"/>
<path d="M0 0 C1.65 0.33 3.3 0.66 5 1 C2.42595029 4.86107457 0.38979741 4.94319692 -4 6 C-4 5.34 -4 4.68 -4 4 C-3.01 3.34 -2.02 2.68 -1 2 C-0.67 1.34 -0.34 0.68 0 0 Z " fill="#272F43" transform="translate(643,396)"/>
<path d="M0 0 C2.76276177 0.52268466 5.3260876 1.10869587 8 2 C8 2.66 8 3.32 8 4 C6.25 4.75 6.25 4.75 4 5 C1.75 3.125 1.75 3.125 0 1 C0 0.67 0 0.34 0 0 Z " fill="#1C2941" transform="translate(803,383)"/>
<path d="M0 0 C3.53586014 3.17320782 5.58578031 5.16743695 6 10 C5.01 10 4.02 10 3 10 C2.566875 8.2984375 2.566875 8.2984375 2.125 6.5625 C1.75375 5.386875 1.3825 4.21125 1 3 C0.34 2.67 -0.32 2.34 -1 2 C-0.67 1.34 -0.34 0.68 0 0 Z " fill="#223655" transform="translate(778,345)"/>
<path d="M0 0 C0.33 1.32 0.66 2.64 1 4 C-0.1875 5.8125 -0.1875 5.8125 -2 7 C-3.32 6.67 -4.64 6.34 -6 6 C-4.02 4.02 -2.04 2.04 0 0 Z " fill="#364255" transform="translate(373,340)"/>
<path d="M0 0 C-1.98 0.33 -3.96 0.66 -6 1 C-6 1.66 -6 2.32 -6 3 C-7.98 3 -9.96 3 -12 3 C-11 1 -11 1 -7.6875 -0.1875 C-4.42437937 -0.90649268 -3.00717118 -1.20286847 0 0 Z " fill="#7DA9CD" transform="translate(406,292)"/>
<path d="M0 0 C0.99 0.33 1.98 0.66 3 1 C3.33 2.65 3.66 4.3 4 6 C2.68 6.33 1.36 6.66 0 7 C0 4.69 0 2.38 0 0 Z " fill="#203657" transform="translate(641,232)"/>
<path d="M0 0 C0 3.28176588 -0.47835901 5.10888212 -2 8 C-4.125 8.8125 -4.125 8.8125 -6 9 C-4.47291037 5.56404834 -2.40072955 2.88087546 0 0 Z " fill="#0A2143" transform="translate(429,475)"/>
<path d="M0 0 C0.99 0 1.98 0 3 0 C3 2.64 3 5.28 3 8 C2.01 8 1.02 8 0 8 C0 5.36 0 2.72 0 0 Z " fill="#2F425B" transform="translate(170,436)"/>
<path d="M0 0 C1.65 1.32 3.3 2.64 5 4 C4.625 5.9375 4.625 5.9375 4 8 C3.01 8.495 3.01 8.495 2 9 C1.4465236 6.92446352 1 5.15634036 1 3 C0.67 2.01 0.34 1.02 0 0 Z " fill="#7AA8CD" transform="translate(830,431)"/>
<path d="M0 0 C0.99 0.33 1.98 0.66 3 1 C3.33 3.31 3.66 5.62 4 8 C2.02 8.99 2.02 8.99 0 10 C0.66 7.69 1.32 5.38 2 3 C1.34 3 0.68 3 0 3 C0 2.01 0 1.02 0 0 Z " fill="#203357" transform="translate(290,424)"/>
<path d="M0 0 C0.99 0 1.98 0 3 0 C2.3125 2.375 2.3125 2.375 1 5 C-1.625 6.3125 -1.625 6.3125 -4 7 C-2.68 4.69 -1.36 2.38 0 0 Z " fill="#2C3448" transform="translate(344,375)"/>
<path d="M0 0 C1.32 0.33 2.64 0.66 4 1 C4.66 3.31 5.32 5.62 6 8 C5.01 8.495 5.01 8.495 4 9 C2.68 6.03 1.36 3.06 0 0 Z " fill="#383F50" transform="translate(618,854)"/>
<path d="M0 0 C4.67692308 1.47692308 4.67692308 1.47692308 6.3125 4.125 C6.539375 4.74375 6.76625 5.3625 7 6 C4 6 4 6 1.8125 4.125 C0 2 0 2 0 0 Z " fill="#323D4E" transform="translate(599,829)"/>
<path d="M0 0 C0 0.99 0 1.98 0 3 C-2.3431213 2.74438677 -4.67843403 2.40729228 -7 2 C-7.33 1.34 -7.66 0.68 -8 0 C-4.71023192 -1.09658936 -3.28696233 -0.79953138 0 0 Z " fill="#263851" transform="translate(609,407)"/>
<path d="M0 0 C2.31 0.33 4.62 0.66 7 1 C7.33 1.99 7.66 2.98 8 4 C5.03 3.505 5.03 3.505 2 3 C2 2.34 2 1.68 2 1 C1.34 0.67 0.68 0.34 0 0 Z " fill="#19263C" transform="translate(794,380)"/>
<path d="M0 0 C1.45922693 0.11409593 2.91740598 0.24165544 4.375 0.375 C5.59316406 0.47941406 5.59316406 0.47941406 6.8359375 0.5859375 C9 1 9 1 11 3 C8.36 3 5.72 3 3 3 C3 2.34 3 1.68 3 1 C2.01 0.67 1.02 0.34 0 0 Z " fill="#091739" transform="translate(539,318)"/>
<path d="M0 0 C3.41021743 0.78697325 6.68885166 1.87119943 10 3 C8.375 4.125 8.375 4.125 6 5 C2.75 4.125 2.75 4.125 0 3 C0 2.01 0 1.02 0 0 Z " fill="#2A4060" transform="translate(621,228)"/>
<path d="M0 0 C0.33 0.99 0.66 1.98 1 3 C-0.4375 5.6875 -0.4375 5.6875 -2 8 C-2.33 7.34 -2.66 6.68 -3 6 C-2.67 5.34 -2.34 4.68 -2 4 C-2.66 3.67 -3.32 3.34 -4 3 C-4 2.34 -4 1.68 -4 1 C-2.68 0.67 -1.36 0.34 0 0 Z " fill="#141F34" transform="translate(780,754)"/>
<path d="M0 0 C0.99 0.33 1.98 0.66 3 1 C3.99 1 4.98 1 6 1 C4 4 4 4 1.875 4.6875 C1.25625 4.790625 0.6375 4.89375 0 5 C0 3.35 0 1.7 0 0 Z " fill="#1E3453" transform="translate(345,684)"/>
<path d="M0 0 C2.5654594 2.5654594 2.54046087 4.47686668 3 8 C1.0625 7.3125 1.0625 7.3125 -1 6 C-1.75 3.375 -1.75 3.375 -2 1 C-1.34 0.67 -0.68 0.34 0 0 Z " fill="#344560" transform="translate(330,652)"/>
<path d="M0 0 C0.99 0 1.98 0 3 0 C2.67 2.31 2.34 4.62 2 7 C1.01 6.67 0.02 6.34 -1 6 C-0.67 4.02 -0.34 2.04 0 0 Z " fill="#2C3B53" transform="translate(300,470)"/>
<path d="M0 0 C0.66 0.33 1.32 0.66 2 1 C0.02 2.98 -1.96 4.96 -4 7 C-4.99 6.67 -5.98 6.34 -7 6 C-4.69 4.02 -2.38 2.04 0 0 Z " fill="#406489" transform="translate(667,449)"/>
<path d="M0 0 C0.33 0.66 0.66 1.32 1 2 C0.01 3.485 0.01 3.485 -1 5 C-3.625 5.1875 -3.625 5.1875 -6 5 C-2.25 1.125 -2.25 1.125 0 0 Z " fill="#0D1D3F" transform="translate(381,414)"/>
<path d="M0 0 C0.33 0.99 0.66 1.98 1 3 C0.34 3 -0.32 3 -1 3 C-1.33 3.99 -1.66 4.98 -2 6 C-2.99 6 -3.98 6 -5 6 C-4.1875 3.5625 -4.1875 3.5625 -3 1 C-2.01 0.67 -1.02 0.34 0 0 Z " fill="#253450" transform="translate(184,348)"/>
<path d="M0 0 C-0.33 1.32 -0.66 2.64 -1 4 C-3.31 4.33 -5.62 4.66 -8 5 C-5.72541886 1.64228499 -4.30291326 0 0 0 Z " fill="#253453" transform="translate(453,246)"/>
<path d="M0 0 C0.763125 0.309375 1.52625 0.61875 2.3125 0.9375 C4.18789677 1.67893593 6.08684652 2.36228217 8 3 C7.67 3.66 7.34 4.32 7 5 C4.625 4.75 4.625 4.75 2 4 C0.6875 1.9375 0.6875 1.9375 0 0 Z " fill="#293C5A" transform="translate(313,182)"/>
<path d="M0 0 C0.99 0.66 1.98 1.32 3 2 C0.03 4.475 0.03 4.475 -3 7 C-3.33 6.01 -3.66 5.02 -4 4 C-2.68 3.67 -1.36 3.34 0 3 C0 2.01 0 1.02 0 0 Z " fill="#1A3259" transform="translate(732,817)"/>
<path d="M0 0 C1.48206495 0.254496 2.96068615 0.52911762 4.4375 0.8125 C5.67306641 1.03873047 5.67306641 1.03873047 6.93359375 1.26953125 C7.95646484 1.63111328 7.95646484 1.63111328 9 2 C9.33 2.99 9.66 3.98 10 5 C6.05140217 4.4359146 3.29120954 3.2568294 0 1 C0 0.67 0 0.34 0 0 Z " fill="#171E2C" transform="translate(490,770)"/>
<path d="M0 0 C2 2 2 2 2.125 5.125 C2.08375 6.07375 2.0425 7.0225 2 8 C1.01 8.33 0.02 8.66 -1 9 C-0.67 6.03 -0.34 3.06 0 0 Z " fill="#14253D" transform="translate(789,714)"/>
<path d="M0 0 C0.66 0 1.32 0 2 0 C2.66 0.99 3.32 1.98 4 3 C4.99 3.33 5.98 3.66 7 4 C6.67 5.32 6.34 6.64 6 8 C4.9970458 6.85675161 3.99770973 5.71032809 3 4.5625 C2.443125 3.92441406 1.88625 3.28632812 1.3125 2.62890625 C0 1 0 1 0 0 Z " fill="#527BA5" transform="translate(479,663)"/>
<path d="M0 0 C2.475 0.99 2.475 0.99 5 2 C5 3.65 5 5.3 5 7 C3.29115995 5.37660195 1.62553283 3.70680947 0 2 C0 1.34 0 0.68 0 0 Z " fill="#0C2345" transform="translate(683,625)"/>
<path d="M0 0 C0 2.31 0 4.62 0 7 C-0.99 7 -1.98 7 -3 7 C-3 5.02 -3 3.04 -3 1 C-1 0 -1 0 0 0 Z " fill="#2E3C57" transform="translate(321,530)"/>
<path d="M0 0 C0.66 0.33 1.32 0.66 2 1 C-0.475 4.465 -0.475 4.465 -3 8 C-3.33 6.68 -3.66 5.36 -4 4 C-2.0625 1.75 -2.0625 1.75 0 0 Z " fill="#0A1633" transform="translate(387,410)"/>
<path d="M0 0 C0.66 1.32 1.32 2.64 2 4 C1.01 4.33 0.02 4.66 -1 5 C-2.66710346 6.49985609 -2.66710346 6.49985609 -4 8 C-2.87548273 5.0280615 -1.77706209 2.66559313 0 0 Z " fill="#80AED1" transform="translate(363,401)"/>
<path d="M0 0 C0 2.31 0 4.62 0 7 C-0.99 7 -1.98 7 -3 7 C-3 5.02 -3 3.04 -3 1 C-1 0 -1 0 0 0 Z " fill="#2A3B57" transform="translate(180,360)"/>
<path d="M0 0 C0.99 0.33 1.98 0.66 3 1 C1.35 2.65 -0.3 4.3 -2 6 C-2 4.35 -2 2.7 -2 1 C-1.34 0.67 -0.68 0.34 0 0 Z " fill="#0C1F3F" transform="translate(404,346)"/>
<path d="M0 0 C2.64 0 5.28 0 8 0 C6.8125 1.5625 6.8125 1.5625 5 3 C2.3125 2.6875 2.3125 2.6875 0 2 C0 1.34 0 0.68 0 0 Z " fill="#2E3B52" transform="translate(379,322)"/>
<path d="M0 0 C1.98 0 3.96 0 6 0 C6 0.99 6 1.98 6 3 C4.125 3.625 4.125 3.625 2 4 C1.34 3.34 0.68 2.68 0 2 C0 1.34 0 0.68 0 0 Z " fill="#223653" transform="translate(370,317)"/>
<path d="M0 0 C2 1 2 1 3 2 C3 2.66 3 3.32 3 4 C1.02 4.66 -0.96 5.32 -3 6 C-1.125 1.125 -1.125 1.125 0 0 Z " fill="#76A2C8" transform="translate(452,311)"/>
<path d="M0 0 C1.670625 0.061875 1.670625 0.061875 3.375 0.125 C2.385 0.455 1.395 0.785 0.375 1.125 C0.375 1.785 0.375 2.445 0.375 3.125 C-2.595 2.63 -2.595 2.63 -5.625 2.125 C-3.625 0.125 -3.625 0.125 0 0 Z " fill="#78A4C9" transform="translate(510.625,257.875)"/>
<path d="M0 0 C2.31 0.33 4.62 0.66 7 1 C7 1.66 7 2.32 7 3 C4.36 3 1.72 3 -1 3 C-0.67 2.01 -0.34 1.02 0 0 Z " fill="#2C4060" transform="translate(532,227)"/>
</svg>
